<svg xmlns="http://www.w3.org/2000/svg" class="map-mode-root-svg-map unselectable touch-action-none cursor-grab" viewBox="-219.96294105243547 -46.39360750557927 1601.3375055187603 794.5299999999984">

    <defs><style>.a{fill:#f0f5fb;}.a,.b,.c,.e,.f,.h,.k,.l,.m,.n,.o,.q,.r{fill-rule:evenodd;}.b,.c,.d,.l,.p{fill:none;}.b,.c,.d,.p{stroke:#87a3b8;}.b,.c,.d,.j,.p{stroke-linecap:round;}.b,.c,.d,.f,.i,.j,.p{stroke-linejoin:round;}.b,.p{stroke-width:7.2px;}.c{stroke-width:1.44px;stroke-dasharray:1.44 2.88;}.d{stroke-width:0.5px;}.e,.f,.i,.q{fill:#fff;}.e,.f,.i{stroke:#a9c2cc;stroke-width:0.96px;}.e,.g,.k,.l,.q{stroke-miterlimit:2.61;}.g,.h{fill:#d6e5ef;}.g,.j,.k,.l{stroke:#f0f5fb;}.j,.k,.m{fill:#a9c2cc;}.n{fill:#87a3b8;}.o{fill:#000003;}.q{stroke:#aac2cc;stroke-width:2px;}.r{fill:#d6e4ee;}.s{fill:#1a1a18;}</style></defs>

    <g transform="rotate(0)">

      <path class="a" d="M13.11,778.51h1164V184H908.91v12H592.71v-30.6H363.51v-102H133.71v102H13.11Z" transform="translate(-9.51 -59.81)"/><path class="b" d="M363.51,99.41v-36H133.71v102H13.11v613.1h1164V184H908.91v12H592.71v-30.6H549.36m-58.8,0h-127v-7.2" transform="translate(-9.51 -59.81)"/><path class="c" d="M133.71,165.41h68.55m29.4,0h2.85v-102M592.71,196v29.4M265.56,341.51h93m225-11.4h279M589,602.51h271.2m-592.8,7.8h258M268,222.11h169.8M13.11,292.61h165.6m0,183h-13.8M13.11,657.41h165.6m0-492v11.85m0,29.4V431.81m0,29.4v28.2m0,29.4v224.4m0,29.4v5.9m184.8-613.1v14.4" transform="translate(-9.51 -59.81)"/><line class="d" x1="3.6" y1="436.8" x2="17.35" y2="412.99"/><line class="d" x1="31.1" y1="436.8" x2="17.35" y2="412.99"/><line class="d" x1="31.1" y1="436.8" x2="44.85" y2="412.99"/><line class="d" x1="58.6" y1="436.8" x2="44.85" y2="412.99"/><line class="d" x1="58.6" y1="436.8" x2="72.35" y2="412.99"/><path class="e" d="M69.81,689.71c-6,0-10.81.4-10.81,6.38a10.82,10.82,0,0,0,21.63,0C80.63,690.11,75.79,689.71,69.81,689.71Z" transform="translate(-9.51 -59.81)"/><polygon class="f" points="10.7 685.74 10.7 644.17 10.7 608.55 33.45 608.55 33.45 644.17 87.15 644.17 87.15 685.74 33.45 685.74 10.7 685.74"/><rect class="g" x="10.63" y="530.4" width="27.6" height="62.95" rx="4.65"/><path class="h" d="M77.3,517c0,6,.4,10.82,6.37,10.82a10.82,10.82,0,0,0,0-21.64C77.7,506.19,77.3,511,77.3,517Z" transform="translate(-9.51 -59.81)"/><path class="h" d="M77.3,542.21c0,6,.4,10.82,6.37,10.82a10.82,10.82,0,0,0,0-21.64C77.7,531.39,77.3,536.24,77.3,542.21Z" transform="translate(-9.51 -59.81)"/><path class="h" d="M77.3,567.41c0,6,.4,10.82,6.37,10.82a10.82,10.82,0,1,0,0-21.64C77.7,556.59,77.3,561.44,77.3,567.41Z" transform="translate(-9.51 -59.81)"/><path class="h" d="M77.3,592.61c0,6,.4,10.82,6.37,10.82a10.82,10.82,0,1,0,0-21.64C77.7,581.79,77.3,586.64,77.3,592.61Z" transform="translate(-9.51 -59.81)"/><path class="h" d="M77.3,617.81c0,6,.4,10.82,6.37,10.82a10.82,10.82,0,0,0,0-21.64C77.7,607,77.3,611.84,77.3,617.81Z" transform="translate(-9.51 -59.81)"/><path class="h" d="M145.88,517c0,6-.4,10.82-6.38,10.82a10.82,10.82,0,0,1,0-21.64C145.48,506.19,145.88,511,145.88,517Z" transform="translate(-9.51 -59.81)"/><path class="h" d="M145.88,542.21c0,6-.4,10.82-6.38,10.82a10.82,10.82,0,0,1,0-21.64C145.48,531.39,145.88,536.24,145.88,542.21Z" transform="translate(-9.51 -59.81)"/><path class="h" d="M145.88,567.41c0,6-.4,10.82-6.38,10.82a10.82,10.82,0,0,1,0-21.64C145.48,556.59,145.88,561.44,145.88,567.41Z" transform="translate(-9.51 -59.81)"/><path class="h" d="M145.88,592.61c0,6-.4,10.82-6.38,10.82a10.82,10.82,0,0,1,0-21.64C145.48,581.79,145.88,586.64,145.88,592.61Z" transform="translate(-9.51 -59.81)"/><path class="h" d="M145.88,617.81c0,6-.4,10.82-6.38,10.82a10.82,10.82,0,0,1,0-21.64C145.48,607,145.88,611.84,145.88,617.81Z" transform="translate(-9.51 -59.81)"/><path class="h" d="M111.59,489.25c6,0,10.81.4,10.81,6.37a10.82,10.82,0,1,1-21.63,0C100.77,489.65,105.62,489.25,111.59,489.25Z" transform="translate(-9.51 -59.81)"/><path class="h" d="M111.59,645.58c6,0,10.81-.41,10.81-6.38a10.82,10.82,0,1,0-21.63,0C100.77,645.17,105.62,645.58,111.59,645.58Z" transform="translate(-9.51 -59.81)"/><rect class="i" x="82.05" y="443.7" width="40.05" height="127.8" rx="3.49"/><rect class="g" x="10.63" y="263.7" width="36.63" height="34.8" rx="5.86"/><path class="h" d="M77.3,334.61c0,6,.4,10.82,6.37,10.82a10.82,10.82,0,1,0,0-21.64C77.7,323.79,77.3,328.64,77.3,334.61Z" transform="translate(-9.51 -59.81)"/><path class="h" d="M77.3,359.81c0,6,.4,10.82,6.37,10.82a10.82,10.82,0,0,0,0-21.64C77.7,349,77.3,353.84,77.3,359.81Z" transform="translate(-9.51 -59.81)"/><path class="h" d="M77.3,385c0,6,.4,10.82,6.37,10.82a10.82,10.82,0,1,0,0-21.64C77.7,374.19,77.3,379,77.3,385Z" transform="translate(-9.51 -59.81)"/><path class="h" d="M77.3,410.21c0,6,.4,10.82,6.37,10.82a10.82,10.82,0,0,0,0-21.64C77.7,399.39,77.3,404.24,77.3,410.21Z" transform="translate(-9.51 -59.81)"/><path class="h" d="M77.3,435.41c0,6,.4,10.82,6.37,10.82a10.82,10.82,0,0,0,0-21.64C77.7,424.59,77.3,429.44,77.3,435.41Z" transform="translate(-9.51 -59.81)"/><path class="h" d="M145.88,334.61c0,6-.4,10.82-6.38,10.82a10.82,10.82,0,0,1,0-21.64C145.48,323.79,145.88,328.64,145.88,334.61Z" transform="translate(-9.51 -59.81)"/><path class="h" d="M145.88,359.81c0,6-.4,10.82-6.38,10.82a10.82,10.82,0,0,1,0-21.64C145.48,349,145.88,353.84,145.88,359.81Z" transform="translate(-9.51 -59.81)"/><path class="h" d="M145.88,385c0,6-.4,10.82-6.38,10.82a10.82,10.82,0,0,1,0-21.64C145.48,374.19,145.88,379,145.88,385Z" transform="translate(-9.51 -59.81)"/><path class="h" d="M145.88,410.21c0,6-.4,10.82-6.38,10.82a10.82,10.82,0,0,1,0-21.64C145.48,399.39,145.88,404.24,145.88,410.21Z" transform="translate(-9.51 -59.81)"/><path class="h" d="M145.88,435.41c0,6-.4,10.82-6.38,10.82a10.82,10.82,0,0,1,0-21.64C145.48,424.59,145.88,429.44,145.88,435.41Z" transform="translate(-9.51 -59.81)"/><path class="h" d="M111.59,306.85c6,0,10.81.4,10.81,6.37a10.82,10.82,0,1,1-21.63,0C100.77,307.25,105.62,306.85,111.59,306.85Z" transform="translate(-9.51 -59.81)"/><path class="h" d="M111.59,463.18c6,0,10.81-.41,10.81-6.38a10.82,10.82,0,1,0-21.63,0C100.77,462.77,105.62,463.18,111.59,463.18Z" transform="translate(-9.51 -59.81)"/><rect class="i" x="82.05" y="261.3" width="40.05" height="127.8" rx="3.49"/><path class="h" d="M62,199.4c6,0,10.82.4,10.82,6.38a10.82,10.82,0,0,1-21.63,0C51.16,199.8,56,199.4,62,199.4Z" transform="translate(-9.51 -59.81)"/><path class="h" d="M86.87,199.4c6,0,10.82.4,10.82,6.38a10.82,10.82,0,0,1-21.63,0C76.06,199.8,80.9,199.4,86.87,199.4Z" transform="translate(-9.51 -59.81)"/><path class="h" d="M111.77,199.4c6,0,10.82.4,10.82,6.38a10.82,10.82,0,0,1-21.63,0C101,199.8,105.8,199.4,111.77,199.4Z" transform="translate(-9.51 -59.81)"/><path class="h" d="M136.67,199.4c6,0,10.82.4,10.82,6.38a10.82,10.82,0,0,1-21.63,0C125.86,199.8,130.7,199.4,136.67,199.4Z" transform="translate(-9.51 -59.81)"/><path class="h" d="M62,268.63c6,0,10.82-.4,10.82-6.37a10.82,10.82,0,1,0-21.63,0C51.16,268.23,56,268.63,62,268.63Z" transform="translate(-9.51 -59.81)"/><path class="h" d="M86.87,268.63c6,0,10.82-.4,10.82-6.37a10.82,10.82,0,1,0-21.63,0C76.06,268.23,80.9,268.63,86.87,268.63Z" transform="translate(-9.51 -59.81)"/><path class="h" d="M111.77,268.63c6,0,10.82-.4,10.82-6.37a10.82,10.82,0,1,0-21.63,0C101,268.23,105.8,268.63,111.77,268.63Z" transform="translate(-9.51 -59.81)"/><path class="h" d="M136.67,268.63c6,0,10.82-.4,10.82-6.37a10.82,10.82,0,1,0-21.63,0C125.86,268.23,130.7,268.63,136.67,268.63Z" transform="translate(-9.51 -59.81)"/><rect class="i" x="37.58" y="154.28" width="103.73" height="40.05" rx="3.49"/><rect class="g" x="131.66" y="11.23" width="89.09" height="28.22" rx="4.75"/><rect class="g" x="131.66" y="66.15" width="21.05" height="35.2" rx="3.55"/><rect class="j" x="247.48" y="239.9" width="24.98" height="32.33" rx="1.58"/><rect class="j" x="247.48" y="207.57" width="24.98" height="32.33" rx="1.58"/><rect class="j" x="272.46" y="207.57" width="5.22" height="64.67" rx="1.14"/><path class="j" d="M256.05,272.23h20.48a1.15,1.15,0,0,1,1.15,1.15v2.93a1.14,1.14,0,0,1-1.14,1.14H256.05a1.14,1.14,0,0,1-1.14-1.14v-2.93A1.14,1.14,0,0,1,256.05,272.23Z"/><path class="j" d="M256.05,202.35h20.48a1.15,1.15,0,0,1,1.15,1.15v2.93a1.14,1.14,0,0,1-1.14,1.14H256.05a1.14,1.14,0,0,1-1.14-1.14v-2.93A1.14,1.14,0,0,1,256.05,202.35Z"/><rect class="j" x="287.3" y="239.9" width="24.98" height="32.33" rx="1.58"/><rect class="j" x="287.3" y="207.57" width="24.98" height="32.33" rx="1.58"/><rect class="j" x="282.09" y="207.57" width="5.22" height="64.67" rx="1.14"/><rect class="j" x="282.09" y="272.23" width="22.77" height="5.22" rx="1.14"/><rect class="j" x="282.09" y="202.35" width="22.77" height="5.22" rx="1.14"/><rect class="j" x="382.4" y="239.9" width="24.98" height="32.33" rx="1.58"/><rect class="j" x="382.4" y="207.57" width="24.98" height="32.33" rx="1.58"/><rect class="j" x="377.19" y="207.57" width="5.22" height="64.67" rx="1.14"/><rect class="j" x="377.19" y="272.23" width="22.77" height="5.22" rx="1.14"/><rect class="j" x="377.19" y="202.35" width="22.77" height="5.22" rx="1.14"/><rect class="j" x="444.72" y="239.9" width="24.98" height="32.33" rx="1.58"/><rect class="j" x="444.72" y="207.57" width="24.98" height="32.33" rx="1.58"/><rect class="j" x="469.7" y="207.57" width="5.22" height="64.67" rx="1.14"/><rect class="j" x="452.15" y="272.23" width="22.77" height="5.22" rx="1.14"/><rect class="j" x="452.15" y="202.35" width="22.77" height="5.22" rx="1.14"/><rect class="g" x="623.33" y="143.58" width="20.73" height="21.05" rx="3.49"/><rect class="g" x="644.06" y="143.58" width="44.7" height="21.05" rx="3.55"/><rect class="g" x="688.76" y="143.58" width="44.7" height="21.05" rx="3.55"/><rect class="g" x="733.46" y="143.58" width="44.7" height="21.05" rx="3.55"/><rect class="g" x="778.16" y="143.58" width="79.5" height="21.05" rx="3.55"/><rect class="g" x="857.66" y="143.58" width="44.7" height="21.05" rx="3.55"/><path class="h" d="M849.74,287.09c6,0,10.82.4,10.82,6.38a10.82,10.82,0,0,1-21.63,0C838.93,287.49,843.77,287.09,849.74,287.09Z" transform="translate(-9.51 -59.81)"/><rect class="g" x="574.73" y="245" width="20.73" height="21.05" rx="3.49"/><path class="h" d="M824.54,287.09c6,0,10.82.4,10.82,6.38a10.82,10.82,0,0,1-21.63,0C813.73,287.49,818.57,287.09,824.54,287.09Z" transform="translate(-9.51 -59.81)"/><path class="h" d="M799.34,287.09c6,0,10.82.4,10.82,6.38a10.82,10.82,0,0,1-21.63,0C788.53,287.49,793.37,287.09,799.34,287.09Z" transform="translate(-9.51 -59.81)"/><path class="h" d="M774.14,287.09c6,0,10.82.4,10.82,6.38a10.82,10.82,0,0,1-21.63,0C763.33,287.49,768.17,287.09,774.14,287.09Z" transform="translate(-9.51 -59.81)"/><path class="h" d="M748.94,287.09c6,0,10.82.4,10.82,6.38a10.82,10.82,0,0,1-21.63,0C738.13,287.49,743,287.09,748.94,287.09Z" transform="translate(-9.51 -59.81)"/><path class="h" d="M723.74,287.09c6,0,10.82.4,10.82,6.38a10.82,10.82,0,0,1-21.63,0C712.93,287.49,717.77,287.09,723.74,287.09Z" transform="translate(-9.51 -59.81)"/><path class="h" d="M698.54,287.09c6,0,10.82.4,10.82,6.38a10.82,10.82,0,0,1-21.63,0C687.73,287.49,692.57,287.09,698.54,287.09Z" transform="translate(-9.51 -59.81)"/><path class="h" d="M673.34,287.09c6,0,10.82.4,10.82,6.38a10.82,10.82,0,0,1-21.63,0C662.53,287.49,667.37,287.09,673.34,287.09Z" transform="translate(-9.51 -59.81)"/><path class="h" d="M648.14,287.09c6,0,10.82.4,10.82,6.38a10.82,10.82,0,0,1-21.63,0C637.33,287.49,642.17,287.09,648.14,287.09Z" transform="translate(-9.51 -59.81)"/><path class="h" d="M622.94,287.09c6,0,10.82.4,10.82,6.38a10.82,10.82,0,0,1-21.63,0C612.13,287.49,617,287.09,622.94,287.09Z" transform="translate(-9.51 -59.81)"/><rect class="i" x="599.71" y="241.5" width="253.34" height="24.55" rx="2.14"/><rect class="g" x="574.73" y="274.55" width="76.13" height="21.05" rx="3.55"/><rect class="g" x="650.86" y="274.55" width="76.13" height="21.05" rx="3.55"/><rect class="g" x="726.99" y="274.55" width="76.13" height="21.05" rx="3.55"/><rect class="g" x="803.11" y="274.55" width="49.94" height="21.05" rx="3.55"/><path class="k" d="M1162.4,366h-27.74a7.07,7.07,0,0,1-7-7.05V233.46H932.85a7.07,7.07,0,0,1-7-7.05V198.68a7.07,7.07,0,0,1,7-7.05H1162.4a7.07,7.07,0,0,1,7,7.05V358.93A7.07,7.07,0,0,1,1162.4,366Z" transform="translate(-9.51 -59.81)"/><path class="l" d="M939.17,218.19V207.1a6.43,6.43,0,0,1,6.42-6.42h209.15a6.43,6.43,0,0,1,6.42,6.42v146a6.44,6.44,0,0,1-6.42,6.42h-9.68" transform="translate(-9.51 -59.81)"/><path class="h" d="M913.37,525.79c0-6,.4-10.82,6.37-10.82a10.82,10.82,0,0,1,0,21.64C913.77,536.61,913.37,531.76,913.37,525.79Z" transform="translate(-9.51 -59.81)"/><path class="h" d="M913.37,500.89c0-6,.4-10.82,6.37-10.82a10.82,10.82,0,0,1,0,21.64C913.77,511.71,913.37,506.86,913.37,500.89Z" transform="translate(-9.51 -59.81)"/><path class="h" d="M913.37,476c0-6,.4-10.82,6.37-10.82a10.82,10.82,0,0,1,0,21.64C913.77,486.81,913.37,482,913.37,476Z" transform="translate(-9.51 -59.81)"/><path class="h" d="M913.37,451.09c0-6,.4-10.82,6.37-10.82a10.82,10.82,0,0,1,0,21.64C913.77,461.91,913.37,457.06,913.37,451.09Z" transform="translate(-9.51 -59.81)"/><path class="h" d="M982.6,525.79c0-6-.41-10.82-6.38-10.82a10.82,10.82,0,0,0,0,21.64C982.19,536.61,982.6,531.76,982.6,525.79Z" transform="translate(-9.51 -59.81)"/><path class="h" d="M982.6,500.89c0-6-.41-10.82-6.38-10.82a10.82,10.82,0,0,0,0,21.64C982.19,511.71,982.6,506.86,982.6,500.89Z" transform="translate(-9.51 -59.81)"/><path class="h" d="M982.6,476c0-6-.41-10.82-6.38-10.82a10.82,10.82,0,0,0,0,21.64C982.19,486.81,982.6,482,982.6,476Z" transform="translate(-9.51 -59.81)"/><path class="h" d="M982.6,451.09c0-6-.41-10.82-6.38-10.82a10.82,10.82,0,0,0,0,21.64C982.19,461.91,982.6,457.06,982.6,451.09Z" transform="translate(-9.51 -59.81)"/><path class="h" d="M948.07,422.68c-6,0-10.81.4-10.81,6.38a10.82,10.82,0,0,0,21.63,0C958.89,423.08,954.05,422.68,948.07,422.68Z" transform="translate(-9.51 -59.81)"/><path class="h" d="M948.07,554.94c-6,0-10.81-.4-10.81-6.37a10.82,10.82,0,1,1,21.63,0C958.89,554.54,954.05,554.94,948.07,554.94Z" transform="translate(-9.51 -59.81)"/><rect class="i" x="918.54" y="377.14" width="40.05" height="103.73" rx="3.49"/><path class="h" d="M1025.57,511.39c0-6,.4-10.82,6.37-10.82a10.82,10.82,0,0,1,0,21.64C1026,522.21,1025.57,517.36,1025.57,511.39Z" transform="translate(-9.51 -59.81)"/><path class="h" d="M1025.57,486.49c0-6,.4-10.82,6.37-10.82a10.82,10.82,0,0,1,0,21.64C1026,497.31,1025.57,492.46,1025.57,486.49Z" transform="translate(-9.51 -59.81)"/><path class="h" d="M1025.57,461.59c0-6,.4-10.82,6.37-10.82a10.82,10.82,0,0,1,0,21.64C1026,472.41,1025.57,467.56,1025.57,461.59Z" transform="translate(-9.51 -59.81)"/><path class="h" d="M1025.57,436.69c0-6,.4-10.82,6.37-10.82a10.82,10.82,0,0,1,0,21.64C1026,447.51,1025.57,442.66,1025.57,436.69Z" transform="translate(-9.51 -59.81)"/><path class="h" d="M1094.8,511.39c0-6-.41-10.82-6.38-10.82a10.82,10.82,0,0,0,0,21.64C1094.39,522.21,1094.8,517.36,1094.8,511.39Z" transform="translate(-9.51 -59.81)"/><path class="h" d="M1094.8,486.49c0-6-.41-10.82-6.38-10.82a10.82,10.82,0,0,0,0,21.64C1094.39,497.31,1094.8,492.46,1094.8,486.49Z" transform="translate(-9.51 -59.81)"/><path class="h" d="M1094.8,461.59c0-6-.41-10.82-6.38-10.82a10.82,10.82,0,0,0,0,21.64C1094.39,472.41,1094.8,467.56,1094.8,461.59Z" transform="translate(-9.51 -59.81)"/><path class="h" d="M1094.8,436.69c0-6-.41-10.82-6.38-10.82a10.82,10.82,0,0,0,0,21.64C1094.39,447.51,1094.8,442.66,1094.8,436.69Z" transform="translate(-9.51 -59.81)"/><path class="h" d="M1060.27,408.28c-6,0-10.81.4-10.81,6.38a10.82,10.82,0,0,0,21.63,0C1071.09,408.68,1066.25,408.28,1060.27,408.28Z" transform="translate(-9.51 -59.81)"/><path class="h" d="M1060.27,540.54c-6,0-10.81-.4-10.81-6.37a10.82,10.82,0,1,1,21.63,0C1071.09,540.14,1066.25,540.54,1060.27,540.54Z" transform="translate(-9.51 -59.81)"/><rect class="i" x="1030.74" y="362.74" width="40.05" height="103.73" rx="3.49"/><rect class="g" x="1131.26" y="440.83" width="27.62" height="90.48" rx="4.65"/><path class="h" d="M943.86,719A17.85,17.85,0,1,0,926,701.17,17.89,17.89,0,0,0,943.86,719Z" transform="translate(-9.51 -59.81)"/><path class="m" d="M968.25,685.72a8.93,8.93,0,1,0-8.92-8.93A8.95,8.95,0,0,0,968.25,685.72Z" transform="translate(-9.51 -59.81)"/><path class="m" d="M977,710.69a8.93,8.93,0,1,0-8.93-8.92A8.94,8.94,0,0,0,977,710.69Z" transform="translate(-9.51 -59.81)"/><path class="m" d="M912.66,696.84h-2.11c-3,0-5.14-2.07-6.54-4.76l-6.5-12.48c-1-2-.36-4.33,1-6.17a6.68,6.68,0,0,1,5.56-2.83h15.11a6.69,6.69,0,0,1,5.56,2.83c1.34,1.84,2,4.15,1,6.17l-6.5,12.48C917.8,694.77,915.69,696.84,912.66,696.84Z" transform="translate(-9.51 -59.81)"/><path class="h" d="M1039.81,726.27A17.85,17.85,0,1,0,1022,708.42,17.89,17.89,0,0,0,1039.81,726.27Z" transform="translate(-9.51 -59.81)"/><path class="m" d="M1075.59,702.49h-2.11c-3,0-5.14-2.07-6.54-4.75l-6.51-12.49c-1-2-.35-4.33,1-6.16a6.69,6.69,0,0,1,5.56-2.84h15.12a6.68,6.68,0,0,1,5.56,2.84c1.34,1.83,2,4.14,1,6.16l-6.5,12.49C1080.73,700.42,1078.62,702.49,1075.59,702.49Z" transform="translate(-9.51 -59.81)"/><path class="m" d="M1015.73,690.5a8.93,8.93,0,1,0-8.92-8.93A8.95,8.95,0,0,0,1015.73,690.5Z" transform="translate(-9.51 -59.81)"/><path class="m" d="M1006.13,715.7a8.93,8.93,0,1,0-8.92-8.93A8.95,8.95,0,0,0,1006.13,715.7Z" transform="translate(-9.51 -59.81)"/><path class="h" d="M1098.16,644a17.85,17.85,0,1,0-17.85-17.85A17.89,17.89,0,0,0,1098.16,644Z" transform="translate(-9.51 -59.81)"/><path class="m" d="M1088.87,592.05v2.11c0,3-2.07,5.14-4.76,6.54l-12.48,6.5c-2,1-4.33.36-6.17-1a6.71,6.71,0,0,1-2.83-5.57V585.55a6.69,6.69,0,0,1,2.83-5.56c1.84-1.34,4.15-2,6.17-1l12.48,6.5C1086.8,586.91,1088.87,589,1088.87,592.05Z" transform="translate(-9.51 -59.81)"/><path class="m" d="M1099.36,672.83a8.93,8.93,0,1,0-8.93-8.93A8.94,8.94,0,0,0,1099.36,672.83Z" transform="translate(-9.51 -59.81)"/><path class="m" d="M1070,659a8.93,8.93,0,1,0-8.93-8.93A8.94,8.94,0,0,0,1070,659Z" transform="translate(-9.51 -59.81)"/><rect class="g" x="578.07" y="546.95" width="76.13" height="21.05" rx="3.55"/><rect class="g" x="654.2" y="546.95" width="76.13" height="21.05" rx="3.55"/><rect class="g" x="730.33" y="546.95" width="76.13" height="21.05" rx="3.55"/><path class="n" d="M841.65,611.49A12.47,12.47,0,1,1,829.18,624a12.47,12.47,0,0,1,12.47-12.47Zm-3.9,5a.22.22,0,0,0-.21.22v5.13a.21.21,0,0,0,.21.21h8.07a.21.21,0,0,0,.22-.21v-5.13a.22.22,0,0,0-.22-.22Zm0,9.34a.21.21,0,0,0-.21.21v5.11a.22.22,0,0,0,.21.22h8.07a.22.22,0,0,0,.22-.22v-5.11a.21.21,0,0,0-.22-.21Zm.84,4.54H845a.21.21,0,0,0,.21-.22h0A.21.21,0,0,0,845,630h-6.39a.21.21,0,0,0-.21.21h0a.21.21,0,0,0,.21.22Zm0-1.51H845a.21.21,0,0,0,.21-.22h0a.21.21,0,0,0-.21-.21h-6.39a.21.21,0,0,0-.21.21h0a.21.21,0,0,0,.21.22Zm0-1.51H845a.21.21,0,0,0,.21-.21h0a.21.21,0,0,0-.21-.22h-6.39a.21.21,0,0,0-.21.22h0a.21.21,0,0,0,.21.21Zm-2.76-7.89a1.46,1.46,0,0,0-1.46,1.46v5.56a1.46,1.46,0,0,0,1.46,1.46h1.22v-1h-.72a.07.07,0,0,1-.07-.07v-1.58a.07.07,0,0,1,.07-.07h10.91a.07.07,0,0,1,.07.07v1.58a.07.07,0,0,1-.07.07h-.72v1h1.23a1.47,1.47,0,0,0,1.46-1.46v-5.56a1.47,1.47,0,0,0-1.46-1.46h-1.18v2.74a.33.33,0,0,1-.33.33h-8.9a.33.33,0,0,1-.33-.33v-2.74Z" transform="translate(-9.51 -59.81)"/><path class="e" d="M291.94,588.14c0,6,.41,10.82,6.38,10.82a10.82,10.82,0,1,0,0-21.63C292.35,577.33,291.94,582.17,291.94,588.14Z" transform="translate(-9.51 -59.81)"/><path class="e" d="M291.94,555.59c0,6,.41,10.82,6.38,10.82a10.82,10.82,0,1,0,0-21.63C292.35,544.78,291.94,549.62,291.94,555.59Z" transform="translate(-9.51 -59.81)"/><path class="e" d="M362.23,588.14c0,6-.4,10.82-6.38,10.82a10.82,10.82,0,0,1,0-21.63C361.83,577.33,362.23,582.17,362.23,588.14Z" transform="translate(-9.51 -59.81)"/><path class="e" d="M362.23,555.59c0,6-.4,10.82-6.38,10.82a10.82,10.82,0,0,1,0-21.63C361.83,544.78,362.23,549.62,362.23,555.59Z" transform="translate(-9.51 -59.81)"/><rect class="i" x="297" y="477.33" width="41.57" height="68.92"/><path class="e" d="M291.94,514.36c0,6,.41,10.81,6.38,10.81a10.82,10.82,0,1,0,0-21.63C292.35,503.54,291.94,508.38,291.94,514.36Z" transform="translate(-9.51 -59.81)"/><path class="e" d="M291.94,481.81c0,6,.41,10.81,6.38,10.81a10.82,10.82,0,1,0,0-21.63C292.35,471,291.94,475.83,291.94,481.81Z" transform="translate(-9.51 -59.81)"/><path class="e" d="M362.23,514.36c0,6-.4,10.81-6.38,10.81a10.82,10.82,0,0,1,0-21.63C361.83,503.54,362.23,508.38,362.23,514.36Z" transform="translate(-9.51 -59.81)"/><path class="e" d="M362.23,481.81c0,6-.4,10.81-6.38,10.81a10.82,10.82,0,0,1,0-21.63C361.83,471,362.23,475.83,362.23,481.81Z" transform="translate(-9.51 -59.81)"/><rect class="i" x="297" y="404.15" width="41.57" height="68.92"/><path class="e" d="M436.55,588.14c0,6,.4,10.82,6.37,10.82a10.82,10.82,0,1,0,0-21.63C437,577.33,436.55,582.17,436.55,588.14Z" transform="translate(-9.51 -59.81)"/><path class="e" d="M436.55,555.59c0,6,.4,10.82,6.37,10.82a10.82,10.82,0,1,0,0-21.63C437,544.78,436.55,549.62,436.55,555.59Z" transform="translate(-9.51 -59.81)"/><path class="e" d="M506.83,588.14c0,6-.4,10.82-6.38,10.82a10.82,10.82,0,0,1,0-21.63C506.43,577.33,506.83,582.17,506.83,588.14Z" transform="translate(-9.51 -59.81)"/><path class="e" d="M506.83,555.59c0,6-.4,10.82-6.38,10.82a10.82,10.82,0,0,1,0-21.63C506.43,544.78,506.83,549.62,506.83,555.59Z" transform="translate(-9.51 -59.81)"/><rect class="i" x="441.6" y="477.33" width="41.57" height="68.92"/><path class="e" d="M436.55,514.36c0,6,.4,10.81,6.37,10.81a10.82,10.82,0,1,0,0-21.63C437,503.54,436.55,508.38,436.55,514.36Z" transform="translate(-9.51 -59.81)"/><path class="e" d="M436.55,481.81c0,6,.4,10.81,6.37,10.81a10.82,10.82,0,1,0,0-21.63C437,471,436.55,475.83,436.55,481.81Z" transform="translate(-9.51 -59.81)"/><path class="e" d="M506.83,514.36c0,6-.4,10.81-6.38,10.81a10.82,10.82,0,0,1,0-21.63C506.43,503.54,506.83,508.38,506.83,514.36Z" transform="translate(-9.51 -59.81)"/><path class="e" d="M506.83,481.81c0,6-.4,10.81-6.38,10.81a10.82,10.82,0,0,1,0-21.63C506.43,471,506.83,475.83,506.83,481.81Z" transform="translate(-9.51 -59.81)"/><rect class="i" x="441.6" y="404.15" width="41.57" height="68.92"/><path class="e" d="M585.45,379.91c0,6,.4,10.82,6.38,10.82a10.82,10.82,0,0,0,0-21.63C585.85,369.1,585.45,373.94,585.45,379.91Z" transform="translate(-9.51 -59.81)"/><rect class="i" x="590.21" y="299.86" width="29.06" height="40.49"/><path class="e" d="M585.45,424.66c0,6,.4,10.81,6.38,10.81a10.82,10.82,0,0,0,0-21.63C585.85,413.84,585.45,418.68,585.45,424.66Z" transform="translate(-9.51 -59.81)"/><rect class="i" x="590.21" y="344.6" width="29.06" height="40.49"/><path class="e" d="M585.45,469.4c0,6,.4,10.82,6.38,10.82a10.82,10.82,0,0,0,0-21.63C585.85,458.59,585.45,463.43,585.45,469.4Z" transform="translate(-9.51 -59.81)"/><rect class="i" x="590.21" y="389.35" width="29.06" height="40.49"/><path class="e" d="M585.45,514.15c0,6,.4,10.82,6.38,10.82a10.82,10.82,0,0,0,0-21.64C585.85,503.33,585.45,508.18,585.45,514.15Z" transform="translate(-9.51 -59.81)"/><rect class="i" x="590.21" y="434.09" width="29.06" height="40.49"/><path class="e" d="M676.35,379.91c0,6-.4,10.82-6.38,10.82a10.82,10.82,0,0,1,0-21.63C676,369.1,676.35,373.94,676.35,379.91Z" transform="translate(-9.51 -59.81)"/><rect class="i" x="623.52" y="299.86" width="29.06" height="40.49"/><path class="e" d="M676.35,424.66c0,6-.4,10.81-6.38,10.81a10.82,10.82,0,0,1,0-21.63C676,413.84,676.35,418.68,676.35,424.66Z" transform="translate(-9.51 -59.81)"/><rect class="i" x="623.52" y="344.6" width="29.06" height="40.49"/><path class="e" d="M676.35,469.4c0,6-.4,10.82-6.38,10.82a10.82,10.82,0,0,1,0-21.63C676,458.59,676.35,463.43,676.35,469.4Z" transform="translate(-9.51 -59.81)"/><rect class="i" x="623.52" y="389.35" width="29.06" height="40.49"/><path class="e" d="M676.35,514.15c0,6-.4,10.82-6.38,10.82a10.82,10.82,0,0,1,0-21.64C676,503.33,676.35,508.18,676.35,514.15Z" transform="translate(-9.51 -59.81)"/><rect class="i" x="623.52" y="434.09" width="29.06" height="40.49"/><path class="e" d="M730.65,379.91c0,6,.4,10.82,6.38,10.82a10.82,10.82,0,0,0,0-21.63C731.05,369.1,730.65,373.94,730.65,379.91Z" transform="translate(-9.51 -59.81)"/><rect class="i" x="735.41" y="299.86" width="29.06" height="40.49"/><path class="e" d="M730.65,424.66c0,6,.4,10.81,6.38,10.81a10.82,10.82,0,0,0,0-21.63C731.05,413.84,730.65,418.68,730.65,424.66Z" transform="translate(-9.51 -59.81)"/><rect class="i" x="735.41" y="344.6" width="29.06" height="40.49"/><path class="e" d="M730.65,469.4c0,6,.4,10.82,6.38,10.82a10.82,10.82,0,0,0,0-21.63C731.05,458.59,730.65,463.43,730.65,469.4Z" transform="translate(-9.51 -59.81)"/><rect class="i" x="735.41" y="389.35" width="29.06" height="40.49"/><path class="e" d="M730.65,514.15c0,6,.4,10.82,6.38,10.82a10.82,10.82,0,0,0,0-21.64C731.05,503.33,730.65,508.18,730.65,514.15Z" transform="translate(-9.51 -59.81)"/><rect class="i" x="735.41" y="434.09" width="29.06" height="40.49"/><path class="e" d="M821.55,379.91c0,6-.4,10.82-6.38,10.82a10.82,10.82,0,0,1,0-21.63C821.15,369.1,821.55,373.94,821.55,379.91Z" transform="translate(-9.51 -59.81)"/><rect class="i" x="768.72" y="299.86" width="29.06" height="40.49"/><path class="e" d="M821.55,424.66c0,6-.4,10.81-6.38,10.81a10.82,10.82,0,0,1,0-21.63C821.15,413.84,821.55,418.68,821.55,424.66Z" transform="translate(-9.51 -59.81)"/><rect class="i" x="768.72" y="344.6" width="29.06" height="40.49"/><path class="e" d="M821.55,469.4c0,6-.4,10.82-6.38,10.82a10.82,10.82,0,0,1,0-21.63C821.15,458.59,821.55,463.43,821.55,469.4Z" transform="translate(-9.51 -59.81)"/><rect class="i" x="768.72" y="389.35" width="29.06" height="40.49"/><path class="e" d="M821.55,514.15c0,6-.4,10.82-6.38,10.82a10.82,10.82,0,0,1,0-21.64C821.15,503.33,821.55,508.18,821.55,514.15Z" transform="translate(-9.51 -59.81)"/><rect class="i" x="768.72" y="434.09" width="29.06" height="40.49"/><path class="e" d="M344.85,755.06c6,0,10.82-.4,10.82-6.37a10.82,10.82,0,1,0-21.63,0C334,754.66,338.88,755.06,344.85,755.06Z" transform="translate(-9.51 -59.81)"/><rect class="i" x="315.1" y="651.93" width="40.49" height="29.06"/><path class="e" d="M389.6,755.06c6,0,10.82-.4,10.82-6.37a10.82,10.82,0,1,0-21.64,0C378.78,754.66,383.63,755.06,389.6,755.06Z" transform="translate(-9.51 -59.81)"/><rect class="i" x="359.84" y="651.93" width="40.49" height="29.06"/><path class="e" d="M434.35,755.06c6,0,10.81-.4,10.81-6.37a10.82,10.82,0,1,0-21.63,0C423.53,754.66,428.37,755.06,434.35,755.06Z" transform="translate(-9.51 -59.81)"/><rect class="i" x="404.59" y="651.93" width="40.49" height="29.06"/><path class="e" d="M479.09,755.06c6,0,10.82-.4,10.82-6.37a10.82,10.82,0,1,0-21.63,0C468.28,754.66,473.12,755.06,479.09,755.06Z" transform="translate(-9.51 -59.81)"/><rect class="i" x="449.34" y="651.93" width="40.49" height="29.06"/><path class="e" d="M344.85,664.16c6,0,10.82.41,10.82,6.38a10.82,10.82,0,1,1-21.63,0C334,664.57,338.88,664.16,344.85,664.16Z" transform="translate(-9.51 -59.81)"/><rect class="i" x="315.1" y="618.62" width="40.49" height="29.06"/><path class="e" d="M389.6,664.16c6,0,10.82.41,10.82,6.38a10.82,10.82,0,1,1-21.64,0C378.78,664.57,383.63,664.16,389.6,664.16Z" transform="translate(-9.51 -59.81)"/><rect class="i" x="359.84" y="618.62" width="40.49" height="29.06"/><path class="e" d="M434.35,664.16c6,0,10.81.41,10.81,6.38a10.82,10.82,0,1,1-21.63,0C423.53,664.57,428.37,664.16,434.35,664.16Z" transform="translate(-9.51 -59.81)"/><rect class="i" x="404.59" y="618.62" width="40.49" height="29.06"/><path class="e" d="M479.09,664.16c6,0,10.82.41,10.82,6.38a10.82,10.82,0,1,1-21.63,0C468.28,664.57,473.12,664.16,479.09,664.16Z" transform="translate(-9.51 -59.81)"/><rect class="i" x="449.34" y="618.62" width="40.49" height="29.06"/><path class="e" d="M523.84,755.06c6,0,10.82-.4,10.82-6.37a10.82,10.82,0,1,0-21.64,0C513,754.66,517.87,755.06,523.84,755.06Z" transform="translate(-9.51 -59.81)"/><rect class="i" x="494.08" y="651.93" width="40.49" height="29.06"/><path class="e" d="M523.84,664.16c6,0,10.82.41,10.82,6.38a10.82,10.82,0,1,1-21.64,0C513,664.57,517.87,664.16,523.84,664.16Z" transform="translate(-9.51 -59.81)"/><rect class="i" x="494.08" y="618.62" width="40.49" height="29.06"/><rect class="g" x="258.28" y="554.75" width="76.13" height="21.05" rx="3.55"/><rect class="g" x="334.41" y="554.75" width="76.13" height="21.05" rx="3.55"/><rect class="g" x="410.53" y="554.75" width="39.71" height="21.05" rx="3.55"/><rect class="g" x="450.24" y="554.75" width="66.9" height="21.05" rx="3.55"/><path class="e" d="M668.45,745c6,0,10.82-.4,10.82-6.38a10.82,10.82,0,0,0-21.64,0C657.63,744.64,662.48,745,668.45,745Z" transform="translate(-9.51 -59.81)"/><path class="e" d="M635.9,745c6,0,10.82-.4,10.82-6.38a10.82,10.82,0,0,0-21.64,0C625.08,744.64,629.93,745,635.9,745Z" transform="translate(-9.51 -59.81)"/><path class="e" d="M668.45,674.76c6,0,10.82.4,10.82,6.37a10.82,10.82,0,0,1-21.64,0C657.63,675.16,662.48,674.76,668.45,674.76Z" transform="translate(-9.51 -59.81)"/><path class="e" d="M635.9,674.76c6,0,10.82.4,10.82,6.37a10.82,10.82,0,0,1-21.64,0C625.08,675.16,629.93,674.76,635.9,674.76Z" transform="translate(-9.51 -59.81)"/><rect class="i" x="607.93" y="629.09" width="68.92" height="41.57"/><path class="e" d="M708.53,745c-6,0-10.81-.4-10.81-6.38a10.82,10.82,0,0,1,21.63,0C719.35,744.64,714.5,745,708.53,745Z" transform="translate(-9.51 -59.81)"/><path class="e" d="M741.08,745c-6,0-10.81-.4-10.81-6.38a10.82,10.82,0,0,1,21.63,0C751.9,744.64,747.05,745,741.08,745Z" transform="translate(-9.51 -59.81)"/><path class="e" d="M708.53,674.76c-6,0-10.81.4-10.81,6.37a10.82,10.82,0,1,0,21.63,0C719.35,675.16,714.5,674.76,708.53,674.76Z" transform="translate(-9.51 -59.81)"/><path class="e" d="M741.08,674.76c-6,0-10.81.4-10.81,6.37a10.82,10.82,0,1,0,21.63,0C751.9,675.16,747.05,674.76,741.08,674.76Z" transform="translate(-9.51 -59.81)"/><rect class="i" x="681.11" y="629.09" width="68.92" height="41.57"/><path class="k" d="M1162.57,596.53h-27.74a7.07,7.07,0,0,0-7,7.05V729.05H906.09a7.07,7.07,0,0,0-7,7.05v27.73a7.06,7.06,0,0,0,7,7h256.48a7.06,7.06,0,0,0,7-7V603.58A7.07,7.07,0,0,0,1162.57,596.53Z" transform="translate(-9.51 -59.81)"/><path class="l" d="M909.87,745.62v11.09a6.44,6.44,0,0,0,6.42,6.42h236.08a6.44,6.44,0,0,0,6.42-6.42v-146a6.45,6.45,0,0,0-6.42-6.42h-9.68" transform="translate(-9.51 -59.81)"/><rect class="g" x="1131.26" y="319.41" width="27.62" height="90.48" rx="4.65"/><polygon class="h" points="368.7 63.98 383.28 78.56 462.38 78.56 462.38 49.4 383.28 49.4 368.7 63.98"/><polygon class="o" points="398.79 69.97 398.79 57.99 406.47 57.99 406.47 59.7 400.73 59.7 400.73 63.03 405.93 63.03 405.93 64.75 400.73 64.75 400.73 68.25 406.47 68.25 406.47 69.97 398.79 69.97"/><polygon class="o" points="412.2 63.34 410.88 60.8 410.83 60.8 410.83 69.97 408.97 69.97 408.97 57.99 411.14 57.99 415.05 64.61 416.37 67.16 416.43 67.16 416.43 57.99 418.28 57.99 418.28 69.97 416.12 69.97 412.2 63.34"/><polygon class="o" points="425.68 59.7 425.68 69.97 423.74 69.97 423.74 59.7 420.17 59.7 420.17 57.99 429.25 57.99 429.25 59.7 425.68 59.7"/><path class="o" d="M442.59,129.78h-1.94v-12h5.17a3.33,3.33,0,0,1,2.54,1,3.63,3.63,0,0,1,.93,2.63,3.7,3.7,0,0,1-.59,2.14,3.14,3.14,0,0,1-1.75,1.19l2.6,5h-2.17l-2.4-4.84h-2.39v4.84Zm3.09-6.47a1.59,1.59,0,0,0,1.15-.39,1.4,1.4,0,0,0,.42-1.1V121a1.4,1.4,0,0,0-.42-1.1,1.59,1.59,0,0,0-1.15-.39h-3.09v3.8Z" transform="translate(-9.51 -59.81)"/><polygon class="o" points="444.57 69.97 444.57 65.25 440.45 57.99 442.66 57.99 445.58 63.33 445.63 63.33 448.54 57.99 450.66 57.99 446.51 65.22 446.51 69.97 444.57 69.97"/><line class="p" x1="481.05" y1="105.6" x2="539.85" y2="105.6"/><path class="q" d="M572.15,187.69V175c0-1.73-.94-3.15-2.1-3.15h-8.27c-1.16,0-2.11,1.42-2.11,3.15v12.69c0,1.73,1,3.15,2.11,3.15h8.27C571.21,190.84,572.15,189.42,572.15,187.69Z" transform="translate(-9.51 -59.81)"/><path class="q" d="M586.32,187.69V175c0-1.73-.94-3.15-2.1-3.15h-8.28c-1.15,0-2.1,1.42-2.1,3.15v12.69c0,1.73.95,3.15,2.1,3.15h8.28C585.38,190.84,586.32,189.42,586.32,187.69Z" transform="translate(-9.51 -59.81)"/><path class="q" d="M543.82,187.69V175c0-1.73-1-3.15-2.1-3.15h-8.28c-1.16,0-2.1,1.42-2.1,3.15v12.69c0,1.73.94,3.15,2.1,3.15h8.28C542.87,190.84,543.82,189.42,543.82,187.69Z" transform="translate(-9.51 -59.81)"/><path class="q" d="M558,187.69V175c0-1.73-1-3.15-2.11-3.15h-8.27c-1.16,0-2.1,1.42-2.1,3.15v12.69c0,1.73.94,3.15,2.1,3.15h8.27C557,190.84,558,189.42,558,187.69Z" transform="translate(-9.51 -59.81)"/><path class="q" d="M515.48,187.69V175c0-1.73-.94-3.15-2.1-3.15H505.1c-1.15,0-2.1,1.42-2.1,3.15v12.69c0,1.73.95,3.15,2.1,3.15h8.28C514.54,190.84,515.48,189.42,515.48,187.69Z" transform="translate(-9.51 -59.81)"/><path class="q" d="M529.65,187.69V175c0-1.73-.95-3.15-2.1-3.15h-8.28c-1.15,0-2.1,1.42-2.1,3.15v12.69c0,1.73,1,3.15,2.1,3.15h8.28C528.7,190.84,529.65,189.42,529.65,187.69Z" transform="translate(-9.51 -59.81)"/><path class="q" d="M487.15,187.69V175c0-1.73-.95-3.15-2.11-3.15h-8.27c-1.16,0-2.1,1.42-2.1,3.15v12.69c0,1.73.94,3.15,2.1,3.15H485C486.2,190.84,487.15,189.42,487.15,187.69Z" transform="translate(-9.51 -59.81)"/><path class="q" d="M501.31,187.69V175c0-1.73-.94-3.15-2.1-3.15h-8.27c-1.16,0-2.11,1.42-2.11,3.15v12.69c0,1.73.95,3.15,2.11,3.15h8.27C500.37,190.84,501.31,189.42,501.31,187.69Z" transform="translate(-9.51 -59.81)"/><path class="q" d="M458.81,187.69V175c0-1.73-.95-3.15-2.1-3.15h-8.28c-1.15,0-2.1,1.42-2.1,3.15v12.69c0,1.73.95,3.15,2.1,3.15h8.28C457.86,190.84,458.81,189.42,458.81,187.69Z" transform="translate(-9.51 -59.81)"/><path class="q" d="M473,187.69V175c0-1.73-1-3.15-2.1-3.15H462.6c-1.16,0-2.1,1.42-2.1,3.15v12.69c0,1.73.94,3.15,2.1,3.15h8.28C472,190.84,473,189.42,473,187.69Z" transform="translate(-9.51 -59.81)"/><path class="q" d="M430.47,187.69V175c0-1.73-.94-3.15-2.1-3.15H420.1c-1.16,0-2.11,1.42-2.11,3.15v12.69c0,1.73.95,3.15,2.11,3.15h8.27C429.53,190.84,430.47,189.42,430.47,187.69Z" transform="translate(-9.51 -59.81)"/><path class="q" d="M444.64,187.69V175c0-1.73-.94-3.15-2.1-3.15h-8.28c-1.15,0-2.1,1.42-2.1,3.15v12.69c0,1.73.95,3.15,2.1,3.15h8.28C443.7,190.84,444.64,189.42,444.64,187.69Z" transform="translate(-9.51 -59.81)"/><path class="q" d="M402.14,187.69V175c0-1.73-.95-3.15-2.1-3.15h-8.28c-1.16,0-2.1,1.42-2.1,3.15v12.69c0,1.73.94,3.15,2.1,3.15H400C401.19,190.84,402.14,189.42,402.14,187.69Z" transform="translate(-9.51 -59.81)"/><path class="q" d="M416.31,187.69V175c0-1.73-.95-3.15-2.11-3.15h-8.27c-1.16,0-2.1,1.42-2.1,3.15v12.69c0,1.73.94,3.15,2.1,3.15h8.27C415.36,190.84,416.31,189.42,416.31,187.69Z" transform="translate(-9.51 -59.81)"/><path class="q" d="M373.8,187.69V175c0-1.73-.94-3.15-2.1-3.15h-8.28c-1.15,0-2.1,1.42-2.1,3.15v12.69c0,1.73.95,3.15,2.1,3.15h8.28C372.86,190.84,373.8,189.42,373.8,187.69Z" transform="translate(-9.51 -59.81)"/><path class="q" d="M388,187.69V175c0-1.73-1-3.15-2.1-3.15h-8.28c-1.15,0-2.1,1.42-2.1,3.15v12.69c0,1.73.95,3.15,2.1,3.15h8.28C387,190.84,388,189.42,388,187.69Z" transform="translate(-9.51 -59.81)"/><path class="r" d="M453.21,220.16h40.33c3.38,0,6.11-3.86,6.11-8.63h0c0-4.77-2.73-8.64-6.11-8.64H453.21c-3.38,0-6.11,3.87-6.11,8.64h0C447.1,216.23,449.89,220.16,453.21,220.16Z" transform="translate(-9.51 -59.81)"/><path class="s" d="M453.11,214.77v-7h1.32v5.81h2.75v1.17Z" transform="translate(-9.51 -59.81)"/><path class="s" d="M457.65,211.28c0-2.36,1.21-3.61,3-3.61s3,1.25,3,3.61-1.2,3.61-3,3.61S457.65,213.64,457.65,211.28Zm4.68.54v-1.08c0-1.19-.64-1.9-1.64-1.9s-1.64.71-1.64,1.9v1.08c0,1.19.64,1.9,1.64,1.9S462.33,213,462.33,211.82Z" transform="translate(-9.51 -59.81)"/><path class="s" d="M464.77,211.33c0-2.35,1.17-3.66,3-3.66a2.55,2.55,0,0,1,2.55,1.61l-1.13.6a1.38,1.38,0,0,0-1.42-1c-1,0-1.61.71-1.61,1.9v1.1c0,1.2.63,1.88,1.61,1.88a1.55,1.55,0,0,0,1.51-1.11l1.07.63a2.68,2.68,0,0,1-2.58,1.65C465.94,214.89,464.77,213.68,464.77,211.33Z" transform="translate(-9.51 -59.81)"/><path class="s" d="M473.74,211.61l-.93,1.1v2.06h-1.32v-7h1.32v3.44h.05l1-1.31,1.73-2.13h1.52l-2.43,2.91,2.63,4.07h-1.57Z" transform="translate(-9.51 -59.81)"/><path class="s" d="M478.27,214.77v-7h4.6V209h-3.28v1.69h2.9v1.17h-2.9v1.78h3.28v1.17Z" transform="translate(-9.51 -59.81)"/><path class="s" d="M485.59,214.77h-1.32v-7h3.15a2,2,0,0,1,2.06,2.16,1.92,1.92,0,0,1-1.3,2l1.43,2.84h-1.47l-1.3-2.69h-1.25Zm1.7-3.8a.73.73,0,0,0,.82-.79v-.46a.73.73,0,0,0-.82-.78h-1.7v2Z" transform="translate(-9.51 -59.81)"/><path class="s" d="M490.48,213.73l.89-.86a2.27,2.27,0,0,0,1.79.86c.81,0,1.23-.39,1.23-1s-.22-.76-.95-.89l-.66-.1c-1.41-.22-2.09-.89-2.09-2s1-2.06,2.53-2.06a2.93,2.93,0,0,1,2.39,1l-.9.85a1.86,1.86,0,0,0-1.56-.72c-.75,0-1.14.3-1.14.82s.3.75,1,.87l.65.12c1.41.25,2.07.88,2.07,2,0,1.32-.95,2.22-2.62,2.22A3.24,3.24,0,0,1,490.48,213.73Z" transform="translate(-9.51 -59.81)"/>

<!---->

<!---->
                  <svg x="81.94500732421875" y="166.8050079345703" width="15" height="15" class="text-white">
                    <use xmlns:xlink="http://www.w3.org/1999/xlink" xlink:href="#fas-fa-circle"/>
                  </svg>
                  <svg x="81.94500732421875" y="166.8050079345703" width="15" height="15" class="text-success">
                    <svg style="transform-origin: 0.5em 0.5em;" class="svg-inline--fa fa-circle" data-prefix="fas" data-icon="circle" aria-hidden="true" focusable="false" role="img" xmlns="http://www.w3.org/2000/svg" viewBox="0 0 512 512">
        <g transform="translate(256 256)"><g transform="translate(0, 0)  scale(1, 1)  rotate(360 0 0)"><path fill="currentColor" d="M256 512A256 256 0 1 0 256 0a256 256 0 1 0 0 512z" transform="translate(-256 -256)"/></g></g>
    </svg>
                  </svg>

                  <rect role="button" x="37.58000183105469" y="154.27999877929688" width="103.73001098632812" height="40.050018310546875" opacity="0" class="cursor-pointer"/>



<!---->
                  <svg x="94.57498168945312" y="317.6999816894531" width="15" height="15" class="text-white">
                    <use xmlns:xlink="http://www.w3.org/1999/xlink" xlink:href="#fas-fa-circle"/>
                  </svg>
                  <svg x="94.57498168945312" y="317.6999816894531" width="15" height="15" class="text-success">
                    <svg style="transform-origin: 0.5em 0.5em;" class="svg-inline--fa fa-circle" data-prefix="fas" data-icon="circle" aria-hidden="true" focusable="false" role="img" xmlns="http://www.w3.org/2000/svg" viewBox="0 0 512 512">
        <g transform="translate(256 256)"><g transform="translate(0, 0)  scale(1, 1)  rotate(360 0 0)"><path fill="currentColor" d="M256 512A256 256 0 1 0 256 0a256 256 0 1 0 0 512z" transform="translate(-256 -256)"/></g></g>
    </svg>
                  </svg>

                  <rect role="button" x="82.04997253417969" y="261.29998779296875" width="40.050018310546875" height="127.79998779296875" opacity="0" class="cursor-pointer"/>



<!---->
                    <svg x="94.57498168945312" y="500.0999755859375" width="15" height="15" viewBox="-1 -1 2 2">
  <circle r="1" class="fill-pale-blue"/>
  <text class="lh-1 fw-semibold fill-g800" alignment-baseline="middle" text-anchor="middle" font-size="0.9" dy=".1em" dominant-baseline="middle" transform="rotate(360)">PJ</text>
</svg>


                  <rect role="button" x="82.04997253417969" y="443.70001220703125" width="40.050018310546875" height="127.7999267578125" opacity="0" class="cursor-pointer"/>



<!---->
                  <svg x="796.1043090820312" y="312.60498046875" width="15" height="15" class="text-white">
                    <use xmlns:xlink="http://www.w3.org/1999/xlink" xlink:href="#fas-fa-circle"/>
                  </svg>
                  <svg x="796.1043090820312" y="312.60498046875" width="15" height="15" class="text-success">
                    <svg style="transform-origin: 0.5em 0.5em;" class="svg-inline--fa fa-circle" data-prefix="fas" data-icon="circle" aria-hidden="true" focusable="false" role="img" xmlns="http://www.w3.org/2000/svg" viewBox="0 0 512 512">
        <g transform="translate(256 256)"><g transform="translate(0, 0)  scale(1, 1)  rotate(360 0 0)"><path fill="currentColor" d="M256 512A256 256 0 1 0 256 0a256 256 0 1 0 0 512z" transform="translate(-256 -256)"/></g></g>
    </svg>
                  </svg>

                  <rect role="button" x="795.168701171875" y="309.28997802734375" width="16.8712158203125" height="21.6300048828125" opacity="0" class="cursor-pointer"/>



<!---->
                  <svg x="796.1043090820312" y="357.3450164794922" width="15" height="15" class="text-white">
                    <use xmlns:xlink="http://www.w3.org/1999/xlink" xlink:href="#fas-fa-circle"/>
                  </svg>
                  <svg x="796.1043090820312" y="357.3450164794922" width="15" height="15" class="text-success">
                    <svg style="transform-origin: 0.5em 0.5em;" class="svg-inline--fa fa-circle" data-prefix="fas" data-icon="circle" aria-hidden="true" focusable="false" role="img" xmlns="http://www.w3.org/2000/svg" viewBox="0 0 512 512">
        <g transform="translate(256 256)"><g transform="translate(0, 0)  scale(1, 1)  rotate(360 0 0)"><path fill="currentColor" d="M256 512A256 256 0 1 0 256 0a256 256 0 1 0 0 512z" transform="translate(-256 -256)"/></g></g>
    </svg>
                  </svg>

                  <rect role="button" x="795.168701171875" y="354.0299987792969" width="16.8712158203125" height="21.630035400390625" opacity="0" class="cursor-pointer"/>



<!---->
                  <svg x="796.1043090820312" y="402.0950012207031" width="15" height="15" class="text-white">
                    <use xmlns:xlink="http://www.w3.org/1999/xlink" xlink:href="#fas-fa-circle"/>
                  </svg>
                  <svg x="796.1043090820312" y="402.0950012207031" width="15" height="15" class="text-success">
                    <svg style="transform-origin: 0.5em 0.5em;" class="svg-inline--fa fa-circle" data-prefix="fas" data-icon="circle" aria-hidden="true" focusable="false" role="img" xmlns="http://www.w3.org/2000/svg" viewBox="0 0 512 512">
        <g transform="translate(256 256)"><g transform="translate(0, 0)  scale(1, 1)  rotate(360 0 0)"><path fill="currentColor" d="M256 512A256 256 0 1 0 256 0a256 256 0 1 0 0 512z" transform="translate(-256 -256)"/></g></g>
    </svg>
                  </svg>

                  <rect role="button" x="795.168701171875" y="398.780029296875" width="16.8712158203125" height="21.62994384765625" opacity="0" class="cursor-pointer"/>



<!---->
                  <svg x="795.9399108886719" y="446.8400421142578" width="15" height="15" class="text-white">
                    <use xmlns:xlink="http://www.w3.org/1999/xlink" xlink:href="#fas-fa-circle"/>
                  </svg>
                  <svg x="795.9399108886719" y="446.8400421142578" width="15" height="15" class="text-success">
                    <svg style="transform-origin: 0.5em 0.5em;" class="svg-inline--fa fa-circle" data-prefix="fas" data-icon="circle" aria-hidden="true" focusable="false" role="img" xmlns="http://www.w3.org/2000/svg" viewBox="0 0 512 512">
        <g transform="translate(256 256)"><g transform="translate(0, 0)  scale(1, 1)  rotate(360 0 0)"><path fill="currentColor" d="M256 512A256 256 0 1 0 256 0a256 256 0 1 0 0 512z" transform="translate(-256 -256)"/></g></g>
    </svg>
                  </svg>

                  <rect role="button" x="794.8399047851562" y="443.52001953125" width="17.20001220703125" height="21.640045166015625" opacity="0" class="cursor-pointer"/>



<!---->
                  <svg x="722.0756225585938" y="312.60498046875" width="15" height="15" class="text-white">
                    <use xmlns:xlink="http://www.w3.org/1999/xlink" xlink:href="#fas-fa-circle"/>
                  </svg>
                  <svg x="722.0756225585938" y="312.60498046875" width="15" height="15" class="text-success">
                    <svg style="transform-origin: 0.5em 0.5em;" class="svg-inline--fa fa-circle" data-prefix="fas" data-icon="circle" aria-hidden="true" focusable="false" role="img" xmlns="http://www.w3.org/2000/svg" viewBox="0 0 512 512">
        <g transform="translate(256 256)"><g transform="translate(0, 0)  scale(1, 1)  rotate(360 0 0)"><path fill="currentColor" d="M256 512A256 256 0 1 0 256 0a256 256 0 1 0 0 512z" transform="translate(-256 -256)"/></g></g>
    </svg>
                  </svg>

                  <rect role="button" x="721.1400146484375" y="309.28997802734375" width="16.8712158203125" height="21.6300048828125" opacity="0" class="cursor-pointer"/>



<!---->
                  <svg x="722.0756225585938" y="357.3450164794922" width="15" height="15" class="text-white">
                    <use xmlns:xlink="http://www.w3.org/1999/xlink" xlink:href="#fas-fa-circle"/>
                  </svg>
                  <svg x="722.0756225585938" y="357.3450164794922" width="15" height="15" class="text-success">
                    <svg style="transform-origin: 0.5em 0.5em;" class="svg-inline--fa fa-circle" data-prefix="fas" data-icon="circle" aria-hidden="true" focusable="false" role="img" xmlns="http://www.w3.org/2000/svg" viewBox="0 0 512 512">
        <g transform="translate(256 256)"><g transform="translate(0, 0)  scale(1, 1)  rotate(360 0 0)"><path fill="currentColor" d="M256 512A256 256 0 1 0 256 0a256 256 0 1 0 0 512z" transform="translate(-256 -256)"/></g></g>
    </svg>
                  </svg>

                  <rect role="button" x="721.1400146484375" y="354.0299987792969" width="16.8712158203125" height="21.630035400390625" opacity="0" class="cursor-pointer"/>



<!---->
                  <svg x="722.0756225585938" y="402.0950012207031" width="15" height="15" class="text-white">
                    <use xmlns:xlink="http://www.w3.org/1999/xlink" xlink:href="#fas-fa-circle"/>
                  </svg>
                  <svg x="722.0756225585938" y="402.0950012207031" width="15" height="15" class="text-success">
                    <svg style="transform-origin: 0.5em 0.5em;" class="svg-inline--fa fa-circle" data-prefix="fas" data-icon="circle" aria-hidden="true" focusable="false" role="img" xmlns="http://www.w3.org/2000/svg" viewBox="0 0 512 512">
        <g transform="translate(256 256)"><g transform="translate(0, 0)  scale(1, 1)  rotate(360 0 0)"><path fill="currentColor" d="M256 512A256 256 0 1 0 256 0a256 256 0 1 0 0 512z" transform="translate(-256 -256)"/></g></g>
    </svg>
                  </svg>

                  <rect role="button" x="721.1400146484375" y="398.780029296875" width="16.8712158203125" height="21.62994384765625" opacity="0" class="cursor-pointer"/>



<!---->
                  <svg x="722.2400207519531" y="446.8400421142578" width="15" height="15" class="text-white">
                    <use xmlns:xlink="http://www.w3.org/1999/xlink" xlink:href="#fas-fa-circle"/>
                  </svg>
                  <svg x="722.2400207519531" y="446.8400421142578" width="15" height="15" class="text-success">
                    <svg style="transform-origin: 0.5em 0.5em;" class="svg-inline--fa fa-circle" data-prefix="fas" data-icon="circle" aria-hidden="true" focusable="false" role="img" xmlns="http://www.w3.org/2000/svg" viewBox="0 0 512 512">
        <g transform="translate(256 256)"><g transform="translate(0, 0)  scale(1, 1)  rotate(360 0 0)"><path fill="currentColor" d="M256 512A256 256 0 1 0 256 0a256 256 0 1 0 0 512z" transform="translate(-256 -256)"/></g></g>
    </svg>
                  </svg>

                  <rect role="button" x="721.1400146484375" y="443.52001953125" width="17.20001220703125" height="21.640045166015625" opacity="0" class="cursor-pointer"/>



<!---->
                  <svg x="650.9043273925781" y="312.60498046875" width="15" height="15" class="text-white">
                    <use xmlns:xlink="http://www.w3.org/1999/xlink" xlink:href="#fas-fa-circle"/>
                  </svg>
                  <svg x="650.9043273925781" y="312.60498046875" width="15" height="15" class="text-success">
                    <svg style="transform-origin: 0.5em 0.5em;" class="svg-inline--fa fa-circle" data-prefix="fas" data-icon="circle" aria-hidden="true" focusable="false" role="img" xmlns="http://www.w3.org/2000/svg" viewBox="0 0 512 512">
        <g transform="translate(256 256)"><g transform="translate(0, 0)  scale(1, 1)  rotate(360 0 0)"><path fill="currentColor" d="M256 512A256 256 0 1 0 256 0a256 256 0 1 0 0 512z" transform="translate(-256 -256)"/></g></g>
    </svg>
                  </svg>

                  <rect role="button" x="649.9686889648438" y="309.28997802734375" width="16.87127685546875" height="21.6300048828125" opacity="0" class="cursor-pointer"/>



<!---->
                  <svg x="650.9043273925781" y="357.3450164794922" width="15" height="15" class="text-white">
                    <use xmlns:xlink="http://www.w3.org/1999/xlink" xlink:href="#fas-fa-circle"/>
                  </svg>
                  <svg x="650.9043273925781" y="357.3450164794922" width="15" height="15" class="text-success">
                    <svg style="transform-origin: 0.5em 0.5em;" class="svg-inline--fa fa-circle" data-prefix="fas" data-icon="circle" aria-hidden="true" focusable="false" role="img" xmlns="http://www.w3.org/2000/svg" viewBox="0 0 512 512">
        <g transform="translate(256 256)"><g transform="translate(0, 0)  scale(1, 1)  rotate(360 0 0)"><path fill="currentColor" d="M256 512A256 256 0 1 0 256 0a256 256 0 1 0 0 512z" transform="translate(-256 -256)"/></g></g>
    </svg>
                  </svg>

                  <rect role="button" x="649.9686889648438" y="354.0299987792969" width="16.87127685546875" height="21.630035400390625" opacity="0" class="cursor-pointer"/>



<!---->
                  <svg x="650.9043273925781" y="402.0950012207031" width="15" height="15" class="text-white">
                    <use xmlns:xlink="http://www.w3.org/1999/xlink" xlink:href="#fas-fa-circle"/>
                  </svg>
                  <svg x="650.9043273925781" y="402.0950012207031" width="15" height="15" class="text-success">
                    <svg style="transform-origin: 0.5em 0.5em;" class="svg-inline--fa fa-circle" data-prefix="fas" data-icon="circle" aria-hidden="true" focusable="false" role="img" xmlns="http://www.w3.org/2000/svg" viewBox="0 0 512 512">
        <g transform="translate(256 256)"><g transform="translate(0, 0)  scale(1, 1)  rotate(360 0 0)"><path fill="currentColor" d="M256 512A256 256 0 1 0 256 0a256 256 0 1 0 0 512z" transform="translate(-256 -256)"/></g></g>
    </svg>
                  </svg>

                  <rect role="button" x="649.9686889648438" y="398.780029296875" width="16.87127685546875" height="21.62994384765625" opacity="0" class="cursor-pointer"/>



<!---->
                  <svg x="650.739990234375" y="446.8400421142578" width="15" height="15" class="text-white">
                    <use xmlns:xlink="http://www.w3.org/1999/xlink" xlink:href="#fas-fa-circle"/>
                  </svg>
                  <svg x="650.739990234375" y="446.8400421142578" width="15" height="15" class="text-success">
                    <svg style="transform-origin: 0.5em 0.5em;" class="svg-inline--fa fa-circle" data-prefix="fas" data-icon="circle" aria-hidden="true" focusable="false" role="img" xmlns="http://www.w3.org/2000/svg" viewBox="0 0 512 512">
        <g transform="translate(256 256)"><g transform="translate(0, 0)  scale(1, 1)  rotate(360 0 0)"><path fill="currentColor" d="M256 512A256 256 0 1 0 256 0a256 256 0 1 0 0 512z" transform="translate(-256 -256)"/></g></g>
    </svg>
                  </svg>

                  <rect role="button" x="649.6400146484375" y="443.52001953125" width="17.199951171875" height="21.640045166015625" opacity="0" class="cursor-pointer"/>



<!---->
                  <svg x="576.8756713867188" y="312.60498046875" width="15" height="15" class="text-white">
                    <use xmlns:xlink="http://www.w3.org/1999/xlink" xlink:href="#fas-fa-circle"/>
                  </svg>
                  <svg x="576.8756713867188" y="312.60498046875" width="15" height="15" class="text-success">
                    <svg style="transform-origin: 0.5em 0.5em;" class="svg-inline--fa fa-circle" data-prefix="fas" data-icon="circle" aria-hidden="true" focusable="false" role="img" xmlns="http://www.w3.org/2000/svg" viewBox="0 0 512 512">
        <g transform="translate(256 256)"><g transform="translate(0, 0)  scale(1, 1)  rotate(360 0 0)"><path fill="currentColor" d="M256 512A256 256 0 1 0 256 0a256 256 0 1 0 0 512z" transform="translate(-256 -256)"/></g></g>
    </svg>
                  </svg>

                  <rect role="button" x="575.9400024414062" y="309.28997802734375" width="16.871337890625" height="21.6300048828125" opacity="0" class="cursor-pointer"/>



<!---->
                  <svg x="576.8756713867188" y="357.3450164794922" width="15" height="15" class="text-white">
                    <use xmlns:xlink="http://www.w3.org/1999/xlink" xlink:href="#fas-fa-circle"/>
                  </svg>
                  <svg x="576.8756713867188" y="357.3450164794922" width="15" height="15" class="text-success">
                    <svg style="transform-origin: 0.5em 0.5em;" class="svg-inline--fa fa-circle" data-prefix="fas" data-icon="circle" aria-hidden="true" focusable="false" role="img" xmlns="http://www.w3.org/2000/svg" viewBox="0 0 512 512">
        <g transform="translate(256 256)"><g transform="translate(0, 0)  scale(1, 1)  rotate(360 0 0)"><path fill="currentColor" d="M256 512A256 256 0 1 0 256 0a256 256 0 1 0 0 512z" transform="translate(-256 -256)"/></g></g>
    </svg>
                  </svg>

                  <rect role="button" x="575.9400024414062" y="354.0299987792969" width="16.871337890625" height="21.630035400390625" opacity="0" class="cursor-pointer"/>



<!---->
                  <svg x="576.8756713867188" y="402.0950012207031" width="15" height="15" class="text-white">
                    <use xmlns:xlink="http://www.w3.org/1999/xlink" xlink:href="#fas-fa-circle"/>
                  </svg>
                  <svg x="576.8756713867188" y="402.0950012207031" width="15" height="15" class="text-success">
                    <svg style="transform-origin: 0.5em 0.5em;" class="svg-inline--fa fa-circle" data-prefix="fas" data-icon="circle" aria-hidden="true" focusable="false" role="img" xmlns="http://www.w3.org/2000/svg" viewBox="0 0 512 512">
        <g transform="translate(256 256)"><g transform="translate(0, 0)  scale(1, 1)  rotate(360 0 0)"><path fill="currentColor" d="M256 512A256 256 0 1 0 256 0a256 256 0 1 0 0 512z" transform="translate(-256 -256)"/></g></g>
    </svg>
                  </svg>

                  <rect role="button" x="575.9400024414062" y="398.780029296875" width="16.871337890625" height="21.62994384765625" opacity="0" class="cursor-pointer"/>



<!---->
                  <svg x="577.0399780273438" y="446.8400421142578" width="15" height="15" class="text-white">
                    <use xmlns:xlink="http://www.w3.org/1999/xlink" xlink:href="#fas-fa-circle"/>
                  </svg>
                  <svg x="577.0399780273438" y="446.8400421142578" width="15" height="15" class="text-success">
                    <svg style="transform-origin: 0.5em 0.5em;" class="svg-inline--fa fa-circle" data-prefix="fas" data-icon="circle" aria-hidden="true" focusable="false" role="img" xmlns="http://www.w3.org/2000/svg" viewBox="0 0 512 512">
        <g transform="translate(256 256)"><g transform="translate(0, 0)  scale(1, 1)  rotate(360 0 0)"><path fill="currentColor" d="M256 512A256 256 0 1 0 256 0a256 256 0 1 0 0 512z" transform="translate(-256 -256)"/></g></g>
    </svg>
                  </svg>

                  <rect role="button" x="575.9400024414062" y="443.52001953125" width="17.199951171875" height="21.640045166015625" opacity="0" class="cursor-pointer"/>



<!---->
                  <svg x="481.3843231201172" y="414.4949951171875" width="15" height="15" class="text-white">
                    <use xmlns:xlink="http://www.w3.org/1999/xlink" xlink:href="#fas-fa-circle"/>
                  </svg>
                  <svg x="481.3843231201172" y="414.4949951171875" width="15" height="15" class="text-success">
                    <svg style="transform-origin: 0.5em 0.5em;" class="svg-inline--fa fa-circle" data-prefix="fas" data-icon="circle" aria-hidden="true" focusable="false" role="img" xmlns="http://www.w3.org/2000/svg" viewBox="0 0 512 512">
        <g transform="translate(256 256)"><g transform="translate(0, 0)  scale(1, 1)  rotate(360 0 0)"><path fill="currentColor" d="M256 512A256 256 0 1 0 256 0a256 256 0 1 0 0 512z" transform="translate(-256 -256)"/></g></g>
    </svg>
                  </svg>

                  <rect role="button" x="480.44866943359375" y="411.1800231933594" width="16.871307373046875" height="21.62994384765625" opacity="0" class="cursor-pointer"/>



<!---->
                  <svg x="481.3843231201172" y="447.04498291015625" width="15" height="15" class="text-white">
                    <use xmlns:xlink="http://www.w3.org/1999/xlink" xlink:href="#fas-fa-circle"/>
                  </svg>
                  <svg x="481.3843231201172" y="447.04498291015625" width="15" height="15" class="text-success">
                    <svg style="transform-origin: 0.5em 0.5em;" class="svg-inline--fa fa-circle" data-prefix="fas" data-icon="circle" aria-hidden="true" focusable="false" role="img" xmlns="http://www.w3.org/2000/svg" viewBox="0 0 512 512">
        <g transform="translate(256 256)"><g transform="translate(0, 0)  scale(1, 1)  rotate(360 0 0)"><path fill="currentColor" d="M256 512A256 256 0 1 0 256 0a256 256 0 1 0 0 512z" transform="translate(-256 -256)"/></g></g>
    </svg>
                  </svg>

                  <rect role="button" x="480.44866943359375" y="443.72998046875" width="16.871307373046875" height="21.6300048828125" opacity="0" class="cursor-pointer"/>



<!---->
                  <svg x="481.3846130371094" y="488.28501892089844" width="15" height="15" class="text-white">
                    <use xmlns:xlink="http://www.w3.org/1999/xlink" xlink:href="#fas-fa-circle"/>
                  </svg>
                  <svg x="481.3846130371094" y="488.28501892089844" width="15" height="15" class="text-success">
                    <svg style="transform-origin: 0.5em 0.5em;" class="svg-inline--fa fa-circle" data-prefix="fas" data-icon="circle" aria-hidden="true" focusable="false" role="img" xmlns="http://www.w3.org/2000/svg" viewBox="0 0 512 512">
        <g transform="translate(256 256)"><g transform="translate(0, 0)  scale(1, 1)  rotate(360 0 0)"><path fill="currentColor" d="M256 512A256 256 0 1 0 256 0a256 256 0 1 0 0 512z" transform="translate(-256 -256)"/></g></g>
    </svg>
                  </svg>

                  <rect role="button" x="480.4492492675781" y="484.9700012207031" width="16.8707275390625" height="21.630035400390625" opacity="0" class="cursor-pointer"/>



<!---->
                  <svg x="481.3843231201172" y="520.8350219726562" width="15" height="15" class="text-white">
                    <use xmlns:xlink="http://www.w3.org/1999/xlink" xlink:href="#fas-fa-circle"/>
                  </svg>
                  <svg x="481.3843231201172" y="520.8350219726562" width="15" height="15" class="text-success">
                    <svg style="transform-origin: 0.5em 0.5em;" class="svg-inline--fa fa-circle" data-prefix="fas" data-icon="circle" aria-hidden="true" focusable="false" role="img" xmlns="http://www.w3.org/2000/svg" viewBox="0 0 512 512">
        <g transform="translate(256 256)"><g transform="translate(0, 0)  scale(1, 1)  rotate(360 0 0)"><path fill="currentColor" d="M256 512A256 256 0 1 0 256 0a256 256 0 1 0 0 512z" transform="translate(-256 -256)"/></g></g>
    </svg>
                  </svg>

                  <rect role="button" x="480.44866943359375" y="517.52001953125" width="16.871307373046875" height="21.6300048828125" opacity="0" class="cursor-pointer"/>



<!---->
                  <svg x="428.29937744140625" y="414.49501037597656" width="15" height="15" class="text-white">
                    <use xmlns:xlink="http://www.w3.org/1999/xlink" xlink:href="#fas-fa-circle"/>
                  </svg>
                  <svg x="428.29937744140625" y="414.49501037597656" width="15" height="15" class="text-success">
                    <svg style="transform-origin: 0.5em 0.5em;" class="svg-inline--fa fa-circle" data-prefix="fas" data-icon="circle" aria-hidden="true" focusable="false" role="img" xmlns="http://www.w3.org/2000/svg" viewBox="0 0 512 512">
        <g transform="translate(256 256)"><g transform="translate(0, 0)  scale(1, 1)  rotate(360 0 0)"><path fill="currentColor" d="M256 512A256 256 0 1 0 256 0a256 256 0 1 0 0 512z" transform="translate(-256 -256)"/></g></g>
    </svg>
                  </svg>

                  <rect role="button" x="427.0400390625" y="411.17498779296875" width="17.5186767578125" height="21.640045166015625" opacity="0" class="cursor-pointer"/>



<!---->
                  <svg x="428.29937744140625" y="447.0449981689453" width="15" height="15" class="text-white">
                    <use xmlns:xlink="http://www.w3.org/1999/xlink" xlink:href="#fas-fa-circle"/>
                  </svg>
                  <svg x="428.29937744140625" y="447.0449981689453" width="15" height="15" class="text-success">
                    <svg style="transform-origin: 0.5em 0.5em;" class="svg-inline--fa fa-circle" data-prefix="fas" data-icon="circle" aria-hidden="true" focusable="false" role="img" xmlns="http://www.w3.org/2000/svg" viewBox="0 0 512 512">
        <g transform="translate(256 256)"><g transform="translate(0, 0)  scale(1, 1)  rotate(360 0 0)"><path fill="currentColor" d="M256 512A256 256 0 1 0 256 0a256 256 0 1 0 0 512z" transform="translate(-256 -256)"/></g></g>
    </svg>
                  </svg>

                  <rect role="button" x="427.0400390625" y="443.72503662109375" width="17.5186767578125" height="21.639923095703125" opacity="0" class="cursor-pointer"/>



<!---->
                  <svg x="428.29966735839844" y="488.28504943847656" width="15" height="15" class="text-white">
                    <use xmlns:xlink="http://www.w3.org/1999/xlink" xlink:href="#fas-fa-circle"/>
                  </svg>
                  <svg x="428.29966735839844" y="488.28504943847656" width="15" height="15" class="text-success">
                    <svg style="transform-origin: 0.5em 0.5em;" class="svg-inline--fa fa-circle" data-prefix="fas" data-icon="circle" aria-hidden="true" focusable="false" role="img" xmlns="http://www.w3.org/2000/svg" viewBox="0 0 512 512">
        <g transform="translate(256 256)"><g transform="translate(0, 0)  scale(1, 1)  rotate(360 0 0)"><path fill="currentColor" d="M256 512A256 256 0 1 0 256 0a256 256 0 1 0 0 512z" transform="translate(-256 -256)"/></g></g>
    </svg>
                  </svg>

                  <rect role="button" x="427.0400390625" y="484.96502685546875" width="17.519256591796875" height="21.640045166015625" opacity="0" class="cursor-pointer"/>



<!---->
                  <svg x="428.29937744140625" y="520.8350219726562" width="15" height="15" class="text-white">
                    <use xmlns:xlink="http://www.w3.org/1999/xlink" xlink:href="#fas-fa-circle"/>
                  </svg>
                  <svg x="428.29937744140625" y="520.8350219726562" width="15" height="15" class="text-success">
                    <svg style="transform-origin: 0.5em 0.5em;" class="svg-inline--fa fa-circle" data-prefix="fas" data-icon="circle" aria-hidden="true" focusable="false" role="img" xmlns="http://www.w3.org/2000/svg" viewBox="0 0 512 512">
        <g transform="translate(256 256)"><g transform="translate(0, 0)  scale(1, 1)  rotate(360 0 0)"><path fill="currentColor" d="M256 512A256 256 0 1 0 256 0a256 256 0 1 0 0 512z" transform="translate(-256 -256)"/></g></g>
    </svg>
                  </svg>

                  <rect role="button" x="427.0400390625" y="517.5150146484375" width="17.5186767578125" height="21.6400146484375" opacity="0" class="cursor-pointer"/>



<!---->
                  <svg x="336.78440856933594" y="414.4949951171875" width="15" height="15" class="text-white">
                    <use xmlns:xlink="http://www.w3.org/1999/xlink" xlink:href="#fas-fa-circle"/>
                  </svg>
                  <svg x="336.78440856933594" y="414.4949951171875" width="15" height="15" class="text-success">
                    <svg style="transform-origin: 0.5em 0.5em;" class="svg-inline--fa fa-circle" data-prefix="fas" data-icon="circle" aria-hidden="true" focusable="false" role="img" xmlns="http://www.w3.org/2000/svg" viewBox="0 0 512 512">
        <g transform="translate(256 256)"><g transform="translate(0, 0)  scale(1, 1)  rotate(360 0 0)"><path fill="currentColor" d="M256 512A256 256 0 1 0 256 0a256 256 0 1 0 0 512z" transform="translate(-256 -256)"/></g></g>
    </svg>
                  </svg>

                  <rect role="button" x="335.8487548828125" y="411.1800231933594" width="16.871307373046875" height="21.62994384765625" opacity="0" class="cursor-pointer"/>



<!---->
                  <svg x="336.78440856933594" y="447.04498291015625" width="15" height="15" class="text-white">
                    <use xmlns:xlink="http://www.w3.org/1999/xlink" xlink:href="#fas-fa-circle"/>
                  </svg>
                  <svg x="336.78440856933594" y="447.04498291015625" width="15" height="15" class="text-success">
                    <svg style="transform-origin: 0.5em 0.5em;" class="svg-inline--fa fa-circle" data-prefix="fas" data-icon="circle" aria-hidden="true" focusable="false" role="img" xmlns="http://www.w3.org/2000/svg" viewBox="0 0 512 512">
        <g transform="translate(256 256)"><g transform="translate(0, 0)  scale(1, 1)  rotate(360 0 0)"><path fill="currentColor" d="M256 512A256 256 0 1 0 256 0a256 256 0 1 0 0 512z" transform="translate(-256 -256)"/></g></g>
    </svg>
                  </svg>

                  <rect role="button" x="335.8487548828125" y="443.72998046875" width="16.871307373046875" height="21.6300048828125" opacity="0" class="cursor-pointer"/>



<!---->
                  <svg x="336.7846984863281" y="488.28501892089844" width="15" height="15" class="text-white">
                    <use xmlns:xlink="http://www.w3.org/1999/xlink" xlink:href="#fas-fa-circle"/>
                  </svg>
                  <svg x="336.7846984863281" y="488.28501892089844" width="15" height="15" class="text-success">
                    <svg style="transform-origin: 0.5em 0.5em;" class="svg-inline--fa fa-circle" data-prefix="fas" data-icon="circle" aria-hidden="true" focusable="false" role="img" xmlns="http://www.w3.org/2000/svg" viewBox="0 0 512 512">
        <g transform="translate(256 256)"><g transform="translate(0, 0)  scale(1, 1)  rotate(360 0 0)"><path fill="currentColor" d="M256 512A256 256 0 1 0 256 0a256 256 0 1 0 0 512z" transform="translate(-256 -256)"/></g></g>
    </svg>
                  </svg>

                  <rect role="button" x="335.8493347167969" y="484.9700012207031" width="16.8707275390625" height="21.630035400390625" opacity="0" class="cursor-pointer"/>



<!---->
                  <svg x="336.78440856933594" y="520.8350219726562" width="15" height="15" class="text-white">
                    <use xmlns:xlink="http://www.w3.org/1999/xlink" xlink:href="#fas-fa-circle"/>
                  </svg>
                  <svg x="336.78440856933594" y="520.8350219726562" width="15" height="15" class="text-success">
                    <svg style="transform-origin: 0.5em 0.5em;" class="svg-inline--fa fa-circle" data-prefix="fas" data-icon="circle" aria-hidden="true" focusable="false" role="img" xmlns="http://www.w3.org/2000/svg" viewBox="0 0 512 512">
        <g transform="translate(256 256)"><g transform="translate(0, 0)  scale(1, 1)  rotate(360 0 0)"><path fill="currentColor" d="M256 512A256 256 0 1 0 256 0a256 256 0 1 0 0 512z" transform="translate(-256 -256)"/></g></g>
    </svg>
                  </svg>

                  <rect role="button" x="335.8487548828125" y="517.52001953125" width="16.871307373046875" height="21.6300048828125" opacity="0" class="cursor-pointer"/>



<!---->
                  <svg x="283.6943359375" y="414.49501037597656" width="15" height="15" class="text-white">
                    <use xmlns:xlink="http://www.w3.org/1999/xlink" xlink:href="#fas-fa-circle"/>
                  </svg>
                  <svg x="283.6943359375" y="414.49501037597656" width="15" height="15" class="text-success">
                    <svg style="transform-origin: 0.5em 0.5em;" class="svg-inline--fa fa-circle" data-prefix="fas" data-icon="circle" aria-hidden="true" focusable="false" role="img" xmlns="http://www.w3.org/2000/svg" viewBox="0 0 512 512">
        <g transform="translate(256 256)"><g transform="translate(0, 0)  scale(1, 1)  rotate(360 0 0)"><path fill="currentColor" d="M256 512A256 256 0 1 0 256 0a256 256 0 1 0 0 512z" transform="translate(-256 -256)"/></g></g>
    </svg>
                  </svg>

                  <rect role="button" x="282.4299621582031" y="411.17498779296875" width="17.52874755859375" height="21.640045166015625" opacity="0" class="cursor-pointer"/>



<!---->
                  <svg x="283.6943359375" y="447.0449676513672" width="15" height="15" class="text-white">
                    <use xmlns:xlink="http://www.w3.org/1999/xlink" xlink:href="#fas-fa-circle"/>
                  </svg>
                  <svg x="283.6943359375" y="447.0449676513672" width="15" height="15" class="text-success">
                    <svg style="transform-origin: 0.5em 0.5em;" class="svg-inline--fa fa-circle" data-prefix="fas" data-icon="circle" aria-hidden="true" focusable="false" role="img" xmlns="http://www.w3.org/2000/svg" viewBox="0 0 512 512">
        <g transform="translate(256 256)"><g transform="translate(0, 0)  scale(1, 1)  rotate(360 0 0)"><path fill="currentColor" d="M256 512A256 256 0 1 0 256 0a256 256 0 1 0 0 512z" transform="translate(-256 -256)"/></g></g>
    </svg>
                  </svg>

                  <rect role="button" x="282.4299621582031" y="443.7249755859375" width="17.52874755859375" height="21.639984130859375" opacity="0" class="cursor-pointer"/>



<!---->
                  <svg x="283.69468688964844" y="488.28504943847656" width="15" height="15" class="text-white">
                    <use xmlns:xlink="http://www.w3.org/1999/xlink" xlink:href="#fas-fa-circle"/>
                  </svg>
                  <svg x="283.69468688964844" y="488.28504943847656" width="15" height="15" class="text-success">
                    <svg style="transform-origin: 0.5em 0.5em;" class="svg-inline--fa fa-circle" data-prefix="fas" data-icon="circle" aria-hidden="true" focusable="false" role="img" xmlns="http://www.w3.org/2000/svg" viewBox="0 0 512 512">
        <g transform="translate(256 256)"><g transform="translate(0, 0)  scale(1, 1)  rotate(360 0 0)"><path fill="currentColor" d="M256 512A256 256 0 1 0 256 0a256 256 0 1 0 0 512z" transform="translate(-256 -256)"/></g></g>
    </svg>
                  </svg>

                  <rect role="button" x="282.4299621582031" y="484.96502685546875" width="17.529449462890625" height="21.640045166015625" opacity="0" class="cursor-pointer"/>



<!---->
                  <svg x="283.6943359375" y="520.8350219726562" width="15" height="15" class="text-white">
                    <use xmlns:xlink="http://www.w3.org/1999/xlink" xlink:href="#fas-fa-circle"/>
                  </svg>
                  <svg x="283.6943359375" y="520.8350219726562" width="15" height="15" class="text-success">
                    <svg style="transform-origin: 0.5em 0.5em;" class="svg-inline--fa fa-circle" data-prefix="fas" data-icon="circle" aria-hidden="true" focusable="false" role="img" xmlns="http://www.w3.org/2000/svg" viewBox="0 0 512 512">
        <g transform="translate(256 256)"><g transform="translate(0, 0)  scale(1, 1)  rotate(360 0 0)"><path fill="currentColor" d="M256 512A256 256 0 1 0 256 0a256 256 0 1 0 0 512z" transform="translate(-256 -256)"/></g></g>
    </svg>
                  </svg>

                  <rect role="button" x="282.4299621582031" y="517.5150146484375" width="17.52874755859375" height="21.6400146484375" opacity="0" class="cursor-pointer"/>



<!---->
                  <svg x="618.8900451660156" y="616.0450134277344" width="15" height="15" class="text-white">
                    <use xmlns:xlink="http://www.w3.org/1999/xlink" xlink:href="#fas-fa-circle"/>
                  </svg>
                  <svg x="618.8900451660156" y="616.0450134277344" width="15" height="15" class="text-success">
                    <svg style="transform-origin: 0.5em 0.5em;" class="svg-inline--fa fa-circle" data-prefix="fas" data-icon="circle" aria-hidden="true" focusable="false" role="img" xmlns="http://www.w3.org/2000/svg" viewBox="0 0 512 512">
        <g transform="translate(256 256)"><g transform="translate(0, 0)  scale(1, 1)  rotate(360 0 0)"><path fill="currentColor" d="M256 512A256 256 0 1 0 256 0a256 256 0 1 0 0 512z" transform="translate(-256 -256)"/></g></g>
    </svg>
                  </svg>

                  <rect role="button" x="615.5700073242188" y="614.9500122070312" width="21.64007568359375" height="17.19000244140625" opacity="0" class="cursor-pointer"/>



<!---->
                  <svg x="651.4400634765625" y="616.0450134277344" width="15" height="15" class="text-white">
                    <use xmlns:xlink="http://www.w3.org/1999/xlink" xlink:href="#fas-fa-circle"/>
                  </svg>
                  <svg x="651.4400634765625" y="616.0450134277344" width="15" height="15" class="text-success">
                    <svg style="transform-origin: 0.5em 0.5em;" class="svg-inline--fa fa-circle" data-prefix="fas" data-icon="circle" aria-hidden="true" focusable="false" role="img" xmlns="http://www.w3.org/2000/svg" viewBox="0 0 512 512">
        <g transform="translate(256 256)"><g transform="translate(0, 0)  scale(1, 1)  rotate(360 0 0)"><path fill="currentColor" d="M256 512A256 256 0 1 0 256 0a256 256 0 1 0 0 512z" transform="translate(-256 -256)"/></g></g>
    </svg>
                  </svg>

                  <rect role="button" x="648.1200561523438" y="614.9500122070312" width="21.6400146484375" height="17.19000244140625" opacity="0" class="cursor-pointer"/>



<!---->
                  <svg x="691.5250244140625" y="616.2093811035156" width="15" height="15" class="text-white">
                    <use xmlns:xlink="http://www.w3.org/1999/xlink" xlink:href="#fas-fa-circle"/>
                  </svg>
                  <svg x="691.5250244140625" y="616.2093811035156" width="15" height="15" class="text-success">
                    <svg style="transform-origin: 0.5em 0.5em;" class="svg-inline--fa fa-circle" data-prefix="fas" data-icon="circle" aria-hidden="true" focusable="false" role="img" xmlns="http://www.w3.org/2000/svg" viewBox="0 0 512 512">
        <g transform="translate(256 256)"><g transform="translate(0, 0)  scale(1, 1)  rotate(360 0 0)"><path fill="currentColor" d="M256 512A256 256 0 1 0 256 0a256 256 0 1 0 0 512z" transform="translate(-256 -256)"/></g></g>
    </svg>
                  </svg>

                  <rect role="button" x="688.2050170898438" y="614.9500122070312" width="21.6400146484375" height="17.51873779296875" opacity="0" class="cursor-pointer"/>



<!---->
                  <svg x="724.0750122070312" y="616.2093811035156" width="15" height="15" class="text-white">
                    <use xmlns:xlink="http://www.w3.org/1999/xlink" xlink:href="#fas-fa-circle"/>
                  </svg>
                  <svg x="724.0750122070312" y="616.2093811035156" width="15" height="15" class="text-success">
                    <svg style="transform-origin: 0.5em 0.5em;" class="svg-inline--fa fa-circle" data-prefix="fas" data-icon="circle" aria-hidden="true" focusable="false" role="img" xmlns="http://www.w3.org/2000/svg" viewBox="0 0 512 512">
        <g transform="translate(256 256)"><g transform="translate(0, 0)  scale(1, 1)  rotate(360 0 0)"><path fill="currentColor" d="M256 512A256 256 0 1 0 256 0a256 256 0 1 0 0 512z" transform="translate(-256 -256)"/></g></g>
    </svg>
                  </svg>

                  <rect role="button" x="720.7550659179688" y="614.9500122070312" width="21.639892578125" height="17.51873779296875" opacity="0" class="cursor-pointer"/>



<!---->
                  <svg x="618.8900451660156" y="669.0900268554688" width="15" height="15" class="text-white">
                    <use xmlns:xlink="http://www.w3.org/1999/xlink" xlink:href="#fas-fa-circle"/>
                  </svg>
                  <svg x="618.8900451660156" y="669.0900268554688" width="15" height="15" class="text-success">
                    <svg style="transform-origin: 0.5em 0.5em;" class="svg-inline--fa fa-circle" data-prefix="fas" data-icon="circle" aria-hidden="true" focusable="false" role="img" xmlns="http://www.w3.org/2000/svg" viewBox="0 0 512 512">
        <g transform="translate(256 256)"><g transform="translate(0, 0)  scale(1, 1)  rotate(360 0 0)"><path fill="currentColor" d="M256 512A256 256 0 1 0 256 0a256 256 0 1 0 0 512z" transform="translate(-256 -256)"/></g></g>
    </svg>
                  </svg>

                  <rect role="button" x="615.5700073242188" y="667.9900512695312" width="21.64007568359375" height="17.199951171875" opacity="0" class="cursor-pointer"/>



<!---->
                  <svg x="651.4400634765625" y="669.0900268554688" width="15" height="15" class="text-white">
                    <use xmlns:xlink="http://www.w3.org/1999/xlink" xlink:href="#fas-fa-circle"/>
                  </svg>
                  <svg x="651.4400634765625" y="669.0900268554688" width="15" height="15" class="text-success">
                    <svg style="transform-origin: 0.5em 0.5em;" class="svg-inline--fa fa-circle" data-prefix="fas" data-icon="circle" aria-hidden="true" focusable="false" role="img" xmlns="http://www.w3.org/2000/svg" viewBox="0 0 512 512">
        <g transform="translate(256 256)"><g transform="translate(0, 0)  scale(1, 1)  rotate(360 0 0)"><path fill="currentColor" d="M256 512A256 256 0 1 0 256 0a256 256 0 1 0 0 512z" transform="translate(-256 -256)"/></g></g>
    </svg>
                  </svg>

                  <rect role="button" x="648.1200561523438" y="667.9900512695312" width="21.6400146484375" height="17.199951171875" opacity="0" class="cursor-pointer"/>



<!---->
                  <svg x="691.5250244140625" y="669.2543640136719" width="15" height="15" class="text-white">
                    <use xmlns:xlink="http://www.w3.org/1999/xlink" xlink:href="#fas-fa-circle"/>
                  </svg>
                  <svg x="691.5250244140625" y="669.2543640136719" width="15" height="15" class="text-success">
                    <svg style="transform-origin: 0.5em 0.5em;" class="svg-inline--fa fa-circle" data-prefix="fas" data-icon="circle" aria-hidden="true" focusable="false" role="img" xmlns="http://www.w3.org/2000/svg" viewBox="0 0 512 512">
        <g transform="translate(256 256)"><g transform="translate(0, 0)  scale(1, 1)  rotate(360 0 0)"><path fill="currentColor" d="M256 512A256 256 0 1 0 256 0a256 256 0 1 0 0 512z" transform="translate(-256 -256)"/></g></g>
    </svg>
                  </svg>

                  <rect role="button" x="688.2100219726562" y="668.3187255859375" width="21.6300048828125" height="16.87127685546875" opacity="0" class="cursor-pointer"/>



<!---->
                  <svg x="724.074951171875" y="669.2543640136719" width="15" height="15" class="text-white">
                    <use xmlns:xlink="http://www.w3.org/1999/xlink" xlink:href="#fas-fa-circle"/>
                  </svg>
                  <svg x="724.074951171875" y="669.2543640136719" width="15" height="15" class="text-success">
                    <svg style="transform-origin: 0.5em 0.5em;" class="svg-inline--fa fa-circle" data-prefix="fas" data-icon="circle" aria-hidden="true" focusable="false" role="img" xmlns="http://www.w3.org/2000/svg" viewBox="0 0 512 512">
        <g transform="translate(256 256)"><g transform="translate(0, 0)  scale(1, 1)  rotate(360 0 0)"><path fill="currentColor" d="M256 512A256 256 0 1 0 256 0a256 256 0 1 0 0 512z" transform="translate(-256 -256)"/></g></g>
    </svg>
                  </svg>

                  <rect role="button" x="720.7599487304688" y="668.3187255859375" width="21.6300048828125" height="16.87127685546875" opacity="0" class="cursor-pointer"/>



<!---->
                  <svg x="350.5499725341797" y="114.03499984741211" width="15" height="15" class="text-white">
                    <use xmlns:xlink="http://www.w3.org/1999/xlink" xlink:href="#fas-fa-circle"/>
                  </svg>
                  <svg x="350.5499725341797" y="114.03499984741211" width="15" height="15" class="text-success">
                    <svg style="transform-origin: 0.5em 0.5em;" class="svg-inline--fa fa-circle" data-prefix="fas" data-icon="circle" aria-hidden="true" focusable="false" role="img" xmlns="http://www.w3.org/2000/svg" viewBox="0 0 512 512">
        <g transform="translate(256 256)"><g transform="translate(0, 0)  scale(1, 1)  rotate(360 0 0)"><path fill="currentColor" d="M256 512A256 256 0 1 0 256 0a256 256 0 1 0 0 512z" transform="translate(-256 -256)"/></g></g>
    </svg>
                  </svg>

                  <rect role="button" x="351.8099365234375" y="112.03998565673828" width="12.480072021484375" height="18.990028381347656" opacity="0" class="cursor-pointer"/>



<!---->
                  <svg x="364.7499694824219" y="114.03499984741211" width="15" height="15" class="text-white">
                    <use xmlns:xlink="http://www.w3.org/1999/xlink" xlink:href="#fas-fa-circle"/>
                  </svg>
                  <svg x="364.7499694824219" y="114.03499984741211" width="15" height="15" class="text-success">
                    <svg style="transform-origin: 0.5em 0.5em;" class="svg-inline--fa fa-circle" data-prefix="fas" data-icon="circle" aria-hidden="true" focusable="false" role="img" xmlns="http://www.w3.org/2000/svg" viewBox="0 0 512 512">
        <g transform="translate(256 256)"><g transform="translate(0, 0)  scale(1, 1)  rotate(360 0 0)"><path fill="currentColor" d="M256 512A256 256 0 1 0 256 0a256 256 0 1 0 0 512z" transform="translate(-256 -256)"/></g></g>
    </svg>
                  </svg>

                  <rect role="button" x="366.0099792480469" y="112.03998565673828" width="12.47998046875" height="18.990028381347656" opacity="0" class="cursor-pointer"/>



<!---->
                  <svg x="378.8900146484375" y="114.03499984741211" width="15" height="15" class="text-white">
                    <use xmlns:xlink="http://www.w3.org/1999/xlink" xlink:href="#fas-fa-circle"/>
                  </svg>
                  <svg x="378.8900146484375" y="114.03499984741211" width="15" height="15" class="text-success">
                    <svg style="transform-origin: 0.5em 0.5em;" class="svg-inline--fa fa-circle" data-prefix="fas" data-icon="circle" aria-hidden="true" focusable="false" role="img" xmlns="http://www.w3.org/2000/svg" viewBox="0 0 512 512">
        <g transform="translate(256 256)"><g transform="translate(0, 0)  scale(1, 1)  rotate(360 0 0)"><path fill="currentColor" d="M256 512A256 256 0 1 0 256 0a256 256 0 1 0 0 512z" transform="translate(-256 -256)"/></g></g>
    </svg>
                  </svg>

                  <rect role="button" x="380.1499938964844" y="112.03998565673828" width="12.48004150390625" height="18.990028381347656" opacity="0" class="cursor-pointer"/>



<!---->
                  <svg x="393.05995178222656" y="114.03499984741211" width="15" height="15" class="text-white">
                    <use xmlns:xlink="http://www.w3.org/1999/xlink" xlink:href="#fas-fa-circle"/>
                  </svg>
                  <svg x="393.05995178222656" y="114.03499984741211" width="15" height="15" class="text-success">
                    <svg style="transform-origin: 0.5em 0.5em;" class="svg-inline--fa fa-circle" data-prefix="fas" data-icon="circle" aria-hidden="true" focusable="false" role="img" xmlns="http://www.w3.org/2000/svg" viewBox="0 0 512 512">
        <g transform="translate(256 256)"><g transform="translate(0, 0)  scale(1, 1)  rotate(360 0 0)"><path fill="currentColor" d="M256 512A256 256 0 1 0 256 0a256 256 0 1 0 0 512z" transform="translate(-256 -256)"/></g></g>
    </svg>
                  </svg>

                  <rect role="button" x="394.3199768066406" y="112.03998565673828" width="12.479949951171875" height="18.990028381347656" opacity="0" class="cursor-pointer"/>



<!---->
                  <svg x="407.219970703125" y="114.03499984741211" width="15" height="15" class="text-white">
                    <use xmlns:xlink="http://www.w3.org/1999/xlink" xlink:href="#fas-fa-circle"/>
                  </svg>
                  <svg x="407.219970703125" y="114.03499984741211" width="15" height="15" class="text-success">
                    <svg style="transform-origin: 0.5em 0.5em;" class="svg-inline--fa fa-circle" data-prefix="fas" data-icon="circle" aria-hidden="true" focusable="false" role="img" xmlns="http://www.w3.org/2000/svg" viewBox="0 0 512 512">
        <g transform="translate(256 256)"><g transform="translate(0, 0)  scale(1, 1)  rotate(360 0 0)"><path fill="currentColor" d="M256 512A256 256 0 1 0 256 0a256 256 0 1 0 0 512z" transform="translate(-256 -256)"/></g></g>
    </svg>
                  </svg>

                  <rect role="button" x="408.47998046875" y="112.03998565673828" width="12.47998046875" height="18.990028381347656" opacity="0" class="cursor-pointer"/>



<!---->
                  <svg x="421.39002990722656" y="114.03499984741211" width="15" height="15" class="text-white">
                    <use xmlns:xlink="http://www.w3.org/1999/xlink" xlink:href="#fas-fa-circle"/>
                  </svg>
                  <svg x="421.39002990722656" y="114.03499984741211" width="15" height="15" class="text-success">
                    <svg style="transform-origin: 0.5em 0.5em;" class="svg-inline--fa fa-circle" data-prefix="fas" data-icon="circle" aria-hidden="true" focusable="false" role="img" xmlns="http://www.w3.org/2000/svg" viewBox="0 0 512 512">
        <g transform="translate(256 256)"><g transform="translate(0, 0)  scale(1, 1)  rotate(360 0 0)"><path fill="currentColor" d="M256 512A256 256 0 1 0 256 0a256 256 0 1 0 0 512z" transform="translate(-256 -256)"/></g></g>
    </svg>
                  </svg>

                  <rect role="button" x="422.6500549316406" y="112.03998565673828" width="12.479949951171875" height="18.990028381347656" opacity="0" class="cursor-pointer"/>



<!---->
                  <svg x="435.5599670410156" y="114.03499984741211" width="15" height="15" class="text-white">
                    <use xmlns:xlink="http://www.w3.org/1999/xlink" xlink:href="#fas-fa-circle"/>
                  </svg>
                  <svg x="435.5599670410156" y="114.03499984741211" width="15" height="15" class="text-success">
                    <svg style="transform-origin: 0.5em 0.5em;" class="svg-inline--fa fa-circle" data-prefix="fas" data-icon="circle" aria-hidden="true" focusable="false" role="img" xmlns="http://www.w3.org/2000/svg" viewBox="0 0 512 512">
        <g transform="translate(256 256)"><g transform="translate(0, 0)  scale(1, 1)  rotate(360 0 0)"><path fill="currentColor" d="M256 512A256 256 0 1 0 256 0a256 256 0 1 0 0 512z" transform="translate(-256 -256)"/></g></g>
    </svg>
                  </svg>

                  <rect role="button" x="436.8199462890625" y="112.03998565673828" width="12.48004150390625" height="18.990028381347656" opacity="0" class="cursor-pointer"/>



<!---->
                  <svg x="449.74000549316406" y="114.03499984741211" width="15" height="15" class="text-white">
                    <use xmlns:xlink="http://www.w3.org/1999/xlink" xlink:href="#fas-fa-circle"/>
                  </svg>
                  <svg x="449.74000549316406" y="114.03499984741211" width="15" height="15" class="text-success">
                    <svg style="transform-origin: 0.5em 0.5em;" class="svg-inline--fa fa-circle" data-prefix="fas" data-icon="circle" aria-hidden="true" focusable="false" role="img" xmlns="http://www.w3.org/2000/svg" viewBox="0 0 512 512">
        <g transform="translate(256 256)"><g transform="translate(0, 0)  scale(1, 1)  rotate(360 0 0)"><path fill="currentColor" d="M256 512A256 256 0 1 0 256 0a256 256 0 1 0 0 512z" transform="translate(-256 -256)"/></g></g>
    </svg>
                  </svg>

                  <rect role="button" x="450.9900207519531" y="112.03998565673828" width="12.499969482421875" height="18.990028381347656" opacity="0" class="cursor-pointer"/>



<!---->
                  <svg x="463.90000915527344" y="114.03499984741211" width="15" height="15" class="text-white">
                    <use xmlns:xlink="http://www.w3.org/1999/xlink" xlink:href="#fas-fa-circle"/>
                  </svg>
                  <svg x="463.90000915527344" y="114.03499984741211" width="15" height="15" class="text-success">
                    <svg style="transform-origin: 0.5em 0.5em;" class="svg-inline--fa fa-circle" data-prefix="fas" data-icon="circle" aria-hidden="true" focusable="false" role="img" xmlns="http://www.w3.org/2000/svg" viewBox="0 0 512 512">
        <g transform="translate(256 256)"><g transform="translate(0, 0)  scale(1, 1)  rotate(360 0 0)"><path fill="currentColor" d="M256 512A256 256 0 1 0 256 0a256 256 0 1 0 0 512z" transform="translate(-256 -256)"/></g></g>
    </svg>
                  </svg>

                  <rect role="button" x="465.15997314453125" y="112.03998565673828" width="12.480072021484375" height="18.990028381347656" opacity="0" class="cursor-pointer"/>



<!---->
                  <svg x="478.05999755859375" y="114.03499984741211" width="15" height="15" class="text-white">
                    <use xmlns:xlink="http://www.w3.org/1999/xlink" xlink:href="#fas-fa-circle"/>
                  </svg>
                  <svg x="478.05999755859375" y="114.03499984741211" width="15" height="15" class="text-success">
                    <svg style="transform-origin: 0.5em 0.5em;" class="svg-inline--fa fa-circle" data-prefix="fas" data-icon="circle" aria-hidden="true" focusable="false" role="img" xmlns="http://www.w3.org/2000/svg" viewBox="0 0 512 512">
        <g transform="translate(256 256)"><g transform="translate(0, 0)  scale(1, 1)  rotate(360 0 0)"><path fill="currentColor" d="M256 512A256 256 0 1 0 256 0a256 256 0 1 0 0 512z" transform="translate(-256 -256)"/></g></g>
    </svg>
                  </svg>

                  <rect role="button" x="479.32000732421875" y="112.03998565673828" width="12.47998046875" height="18.990028381347656" opacity="0" class="cursor-pointer"/>



<!---->
                  <svg x="492.22998046875" y="114.03499984741211" width="15" height="15" class="text-white">
                    <use xmlns:xlink="http://www.w3.org/1999/xlink" xlink:href="#fas-fa-circle"/>
                  </svg>
                  <svg x="492.22998046875" y="114.03499984741211" width="15" height="15" class="text-success">
                    <svg style="transform-origin: 0.5em 0.5em;" class="svg-inline--fa fa-circle" data-prefix="fas" data-icon="circle" aria-hidden="true" focusable="false" role="img" xmlns="http://www.w3.org/2000/svg" viewBox="0 0 512 512">
        <g transform="translate(256 256)"><g transform="translate(0, 0)  scale(1, 1)  rotate(360 0 0)"><path fill="currentColor" d="M256 512A256 256 0 1 0 256 0a256 256 0 1 0 0 512z" transform="translate(-256 -256)"/></g></g>
    </svg>
                  </svg>

                  <rect role="button" x="493.489990234375" y="112.03998565673828" width="12.47998046875" height="18.990028381347656" opacity="0" class="cursor-pointer"/>



<!---->
                  <svg x="506.40003967285156" y="114.03499984741211" width="15" height="15" class="text-white">
                    <use xmlns:xlink="http://www.w3.org/1999/xlink" xlink:href="#fas-fa-circle"/>
                  </svg>
                  <svg x="506.40003967285156" y="114.03499984741211" width="15" height="15" class="text-success">
                    <svg style="transform-origin: 0.5em 0.5em;" class="svg-inline--fa fa-circle" data-prefix="fas" data-icon="circle" aria-hidden="true" focusable="false" role="img" xmlns="http://www.w3.org/2000/svg" viewBox="0 0 512 512">
        <g transform="translate(256 256)"><g transform="translate(0, 0)  scale(1, 1)  rotate(360 0 0)"><path fill="currentColor" d="M256 512A256 256 0 1 0 256 0a256 256 0 1 0 0 512z" transform="translate(-256 -256)"/></g></g>
    </svg>
                  </svg>

                  <rect role="button" x="507.6600646972656" y="112.03998565673828" width="12.479949951171875" height="18.990028381347656" opacity="0" class="cursor-pointer"/>



<!---->
                  <svg x="520.5700073242188" y="114.03499984741211" width="15" height="15" class="text-white">
                    <use xmlns:xlink="http://www.w3.org/1999/xlink" xlink:href="#fas-fa-circle"/>
                  </svg>
                  <svg x="520.5700073242188" y="114.03499984741211" width="15" height="15" class="text-success">
                    <svg style="transform-origin: 0.5em 0.5em;" class="svg-inline--fa fa-circle" data-prefix="fas" data-icon="circle" aria-hidden="true" focusable="false" role="img" xmlns="http://www.w3.org/2000/svg" viewBox="0 0 512 512">
        <g transform="translate(256 256)"><g transform="translate(0, 0)  scale(1, 1)  rotate(360 0 0)"><path fill="currentColor" d="M256 512A256 256 0 1 0 256 0a256 256 0 1 0 0 512z" transform="translate(-256 -256)"/></g></g>
    </svg>
                  </svg>

                  <rect role="button" x="521.8300170898438" y="112.03998565673828" width="12.47998046875" height="18.990028381347656" opacity="0" class="cursor-pointer"/>



<!---->
                  <svg x="534.7500610351562" y="114.03499984741211" width="15" height="15" class="text-white">
                    <use xmlns:xlink="http://www.w3.org/1999/xlink" xlink:href="#fas-fa-circle"/>
                  </svg>
                  <svg x="534.7500610351562" y="114.03499984741211" width="15" height="15" class="text-success">
                    <svg style="transform-origin: 0.5em 0.5em;" class="svg-inline--fa fa-circle" data-prefix="fas" data-icon="circle" aria-hidden="true" focusable="false" role="img" xmlns="http://www.w3.org/2000/svg" viewBox="0 0 512 512">
        <g transform="translate(256 256)"><g transform="translate(0, 0)  scale(1, 1)  rotate(360 0 0)"><path fill="currentColor" d="M256 512A256 256 0 1 0 256 0a256 256 0 1 0 0 512z" transform="translate(-256 -256)"/></g></g>
    </svg>
                  </svg>

                  <rect role="button" x="536.0100708007812" y="112.03998565673828" width="12.47998046875" height="18.990028381347656" opacity="0" class="cursor-pointer"/>



<!---->
                  <svg x="548.9000244140625" y="114.03499984741211" width="15" height="15" class="text-white">
                    <use xmlns:xlink="http://www.w3.org/1999/xlink" xlink:href="#fas-fa-circle"/>
                  </svg>
                  <svg x="548.9000244140625" y="114.03499984741211" width="15" height="15" class="text-success">
                    <svg style="transform-origin: 0.5em 0.5em;" class="svg-inline--fa fa-circle" data-prefix="fas" data-icon="circle" aria-hidden="true" focusable="false" role="img" xmlns="http://www.w3.org/2000/svg" viewBox="0 0 512 512">
        <g transform="translate(256 256)"><g transform="translate(0, 0)  scale(1, 1)  rotate(360 0 0)"><path fill="currentColor" d="M256 512A256 256 0 1 0 256 0a256 256 0 1 0 0 512z" transform="translate(-256 -256)"/></g></g>
    </svg>
                  </svg>

                  <rect role="button" x="550.1600341796875" y="112.03998565673828" width="12.47998046875" height="18.990028381347656" opacity="0" class="cursor-pointer"/>



<!---->
                  <svg x="563.0700073242188" y="114.03499984741211" width="15" height="15" class="text-white">
                    <use xmlns:xlink="http://www.w3.org/1999/xlink" xlink:href="#fas-fa-circle"/>
                  </svg>
                  <svg x="563.0700073242188" y="114.03499984741211" width="15" height="15" class="text-success">
                    <svg style="transform-origin: 0.5em 0.5em;" class="svg-inline--fa fa-circle" data-prefix="fas" data-icon="circle" aria-hidden="true" focusable="false" role="img" xmlns="http://www.w3.org/2000/svg" viewBox="0 0 512 512">
        <g transform="translate(256 256)"><g transform="translate(0, 0)  scale(1, 1)  rotate(360 0 0)"><path fill="currentColor" d="M256 512A256 256 0 1 0 256 0a256 256 0 1 0 0 512z" transform="translate(-256 -256)"/></g></g>
    </svg>
                  </svg>

                  <rect role="button" x="564.3300170898438" y="112.03998565673828" width="12.47998046875" height="18.990028381347656" opacity="0" class="cursor-pointer"/>


    </g>
  </svg>