<?xml version="1.0" standalone="no"?>
<!DOCTYPE svg PUBLIC "-//W3C//DTD SVG 20010904//EN"
 "http://www.w3.org/TR/2001/REC-SVG-20010904/DTD/svg10.dtd">
<svg version="1.0" xmlns="http://www.w3.org/2000/svg"
 width="934.000000pt" height="582.000000pt" viewBox="0 0 934.000000 582.000000"
 preserveAspectRatio="xMidYMid meet">

<g transform="translate(0.000000,582.000000) scale(0.100000,-0.100000)"
fill="#000000" stroke="none">
<path d="M3124 5236 c-3 -8 -4 -29 -2 -48 2 -28 7 -34 31 -36 15 -2 27 1 27 7
0 6 -9 11 -20 11 -11 0 -20 5 -20 10 0 6 7 10 15 10 8 0 15 5 15 10 0 6 -7 10
-15 10 -8 0 -15 5 -15 10 0 6 9 10 20 10 11 0 20 5 20 10 0 15 -50 12 -56 -4z"/>
<path d="M3200 5199 c0 -31 4 -48 10 -44 6 3 10 18 10 33 l0 27 20 -32 c11
-18 22 -33 25 -33 3 0 4 24 4 53 -1 46 -2 48 -8 17 l-6 -35 -20 33 c-11 17
-23 32 -27 32 -4 0 -8 -23 -8 -51z"/>
<path d="M3290 5240 c0 -5 5 -10 10 -10 6 0 10 -15 10 -34 0 -19 5 -38 10 -41
6 -4 10 10 10 34 0 23 5 41 10 41 6 0 10 5 10 10 0 6 -13 10 -30 10 -16 0 -30
-4 -30 -10z"/>
<path d="M3370 5199 c0 -31 4 -48 10 -44 6 3 10 13 10 21 0 19 16 18 24 -1 3
-8 10 -15 16 -15 7 0 8 6 1 18 -7 13 -7 22 1 30 16 16 -8 42 -38 42 -22 0 -24
-4 -24 -51z m50 21 c0 -5 -7 -10 -15 -10 -8 0 -15 5 -15 10 0 6 7 10 15 10 8
0 15 -4 15 -10z"/>
<path d="M3450 5238 c0 -9 5 -20 10 -23 6 -3 10 -17 10 -30 0 -13 5 -27 10
-30 6 -3 10 4 10 17 0 14 7 33 15 44 17 22 19 34 6 34 -5 0 -13 -10 -17 -22
l-6 -21 -19 24 c-15 19 -19 20 -19 7z"/>
<path d="M3511 4546 c-15 -18 -3 -48 18 -44 21 4 27 44 7 51 -8 3 -19 0 -25
-7z m24 -26 c-5 -8 -11 -8 -17 -2 -6 6 -7 16 -3 22 5 8 11 8 17 2 6 -6 7 -16
3 -22z"/>
<path d="M3567 4553 c-11 -10 -8 -41 4 -49 6 -3 16 -1 22 5 9 9 8 11 -5 6 -14
-6 -18 -2 -18 15 0 16 4 20 16 16 8 -3 12 -2 9 4 -7 12 -19 13 -28 3z"/>
<path d="M3635 4550 c-4 -6 -11 -8 -16 -5 -5 4 -9 -6 -8 -22 0 -15 3 -22 6
-15 3 9 9 10 18 2 9 -8 12 -3 11 20 -1 33 -2 35 -11 20z"/>
<path d="M3667 4553 c-4 -3 -7 -17 -7 -30 0 -17 5 -23 23 -22 21 0 21 1 2 9
-13 6 -15 9 -5 9 13 1 13 2 0 11 -10 6 -11 10 -2 10 6 0 12 5 12 10 0 11 -13
13 -23 3z"/>
<path d="M3710 4528 c0 -25 3 -29 10 -18 5 8 10 11 10 5 0 -5 5 -2 11 9 9 14
8 20 -2 27 -24 15 -29 10 -29 -23z m25 12 c3 -5 1 -10 -4 -10 -6 0 -11 5 -11
10 0 6 2 10 4 10 3 0 8 -4 11 -10z"/>
<path d="M3765 4550 c-4 -6 -2 -17 5 -24 8 -11 8 -15 -2 -19 -9 -4 -7 -6 4 -6
23 -1 33 18 14 25 -9 3 -16 10 -16 16 0 5 5 6 10 3 6 -3 10 -1 10 4 0 14 -17
14 -25 1z"/>
<path d="M3471 4528 c-1 -21 4 -28 17 -28 11 0 13 3 6 8 -7 4 -14 16 -17 27
-4 15 -5 14 -6 -7z"/>
</g>
</svg>
